SplineFontDB: 3.2
FontName: RoystonRegular
FullName: Royston Regular
FamilyName: Royston
Weight: Regular
Copyright: Copyright (c) 2023, Bill Hails
UComments: "2023-1-27: Created with FontForge (http://fontforge.org)"
Version: 001.000
ItalicAngle: 0
UnderlinePosition: -204
UnderlineWidth: 102
Ascent: 1153
Descent: 895
InvalidEm: 0
LayerCount: 2
Layer: 0 0 "Back" 1
Layer: 1 0 "Fore" 0
XUID: [1021 524 1923241611 3393382]
FSType: 0
OS2Version: 0
OS2_WeightWidthSlopeOnly: 0
OS2_UseTypoMetrics: 1
CreationTime: 1674819720
ModificationTime: 1675593933
PfmFamily: 17
TTFWeight: 400
TTFWidth: 5
LineGap: 184
VLineGap: 0
OS2TypoAscent: 0
OS2TypoAOffset: 1
OS2TypoDescent: 0
OS2TypoDOffset: 1
OS2TypoLinegap: 184
OS2WinAscent: 0
OS2WinAOffset: 1
OS2WinDescent: 0
OS2WinDOffset: 1
HheadAscent: 0
HheadAOffset: 1
HheadDescent: 0
HheadDOffset: 1
OS2Vendor: 'PfEd'
OS2CodePages: 00000001.00000000
OS2UnicodeRanges: 00000001.00000000.00000000.00000000
Lookup: 258 0 0 "kerning" { "kerning-1" [100,0,4] } []
Lookup: 260 0 0 "accents" { "accents-1"  } []
MarkAttachClasses: 1
DEI: 91125
KernClass2: 24 16 "kerning-1"
 1 A
 7 D N O W
 5 J T Y
 9 K Q R U X
 1 P
 1 f
 11 b c e o p s
 5 t v w
 7 g q y z
 9 a i k l u
 9 C E G H I
 1 r
 1 B
 1 L
 1 S
 1 V
 1 Z
 1 F
 1 M
 1 d
 5 h m n
 1 j
 1 x
 1 A
 7 C G O Q
 31 B D E F H J K L M N P R S b h k
 15 a c d e g o q s
 5 U V W
 7 i m n r
 1 l
 1 f
 1 j
 7 I X Y Z
 1 T
 1 p
 1 t
 5 u v w
 5 x y z

StartChar: A
Encoding: 65 65 0
Width: 676
VWidth: 1748
Flags: W
HStem: 779 74<236.352 388.758>
VStem: 82 74<230.323 611.465> 555 74<-15.686 377.537>
AnchorPoint: "bottom" 582.289 2 basechar 0
AnchorPoint: "top" 316.289 958 basechar 0
LayerCount: 2
Fore
SplineSet
603 390 m 1
 604 387 629 61 629 36 c 0
 629 12 593 -25 568 -25 c 0
 561 -25 555 -20 555 -12 c 0
 552 53 534 289 526 382 c 1
 268 362 156 219 105 22 c 0
 97 -11 59 -35 39 -35 c 0
 32 -35 27 -31 27 -23 c 0
 27 -18 29 -11 35 -1 c 1
 75 142 82 341 82 344 c 0
 96 833 298 853 330 853 c 0
 549 853 589 565 598 459 c 1
 615 460 630 460 635 460 c 0
 643 460 647 455 647 448 c 0
 647 430 626 403 603 390 c 1
520 451 m 1
 501 591 444 779 283 779 c 0
 169 779 157 415 156 390 c 0
 155 346 150 285 143 225 c 1
 257 380 406 434 520 451 c 1
EndSplineSet
Validated: 1
EndChar

StartChar: at
Encoding: 64 64 1
Width: 590
Flags: W
HStem: -35 58<199.096 397.82> 72 59<243.899 305.228 389.283 413.637> 304 56<324.125 347.298> 405 58<197.179 389.48>
VStem: 41 58<123.735 306.553> 137 61<175.186 287.22> 369 60<187.475 292.093> 488 58<113.574 304.859>
LayerCount: 2
Fore
SplineSet
245 348 m 0
 264 348 281 322 326 247 c 0
 338 226 351 206 363 187 c 1
 367 200 369 213 369 226 c 0
 369 252 361 276 348 289 c 0
 333 304 320 300 316 304 c 0
 315 305 314 307 314 310 c 0
 314 325 341 360 371 360 c 0
 402 360 429 323 429 270 c 0
 429 232 416 188 389 151 c 1
 395 144 404 134 413 131 c 0
 414 131 l 0
 420 131 423 128 423 123 c 0
 423 107 395 72 371 72 c 0
 357 72 345 83 332 98 c 1
 306 82 280 76 255 76 c 0
 174 76 137 175 137 218 c 0
 137 275 199 348 245 348 c 0
306 135 m 1
 294 154 281 175 269 195 c 0
 239 246 217 280 204 288 c 1
 200 280 198 270 198 259 c 0
 198 208 239 135 299 135 c 2
 306 135 l 1
279 -35 m 0
 123 -35 41 73 41 190 c 0
 41 322 148 463 320 463 c 0
 466 463 546 353 546 235 c 0
 546 102 443 -35 279 -35 c 0
488 195 m 0
 488 303 417 405 282 405 c 0
 148 405 99 320 99 231 c 0
 99 132 165 23 317 23 c 0
 471 23 488 142 488 195 c 0
EndSplineSet
Validated: 1
EndChar

StartChar: question
Encoding: 63 63 2
Width: 470
Flags: W
HStem: -43 126<150.43 241.733> 161 89<249.562 278.057> 413 71<203.958 302.331> 778 75<119.944 311.939>
VStem: 30 75<678.546 753.308> 127 75<238.815 412.228> 136 120<-30.3352 69.7894> 361 75<544.173 731.052>
LayerCount: 2
Fore
SplineSet
210 484 m 2xfd
 256 484 305 499 327 521 c 0
 359 553 361 624 361 638 c 0
 361 736 276 778 199 778 c 0
 149 778 116 760 110 754 c 1
 105 739 105 739 105 731 c 0
 105 707 67 669 43 669 c 0
 35 669 30 673 30 682 c 0
 30 763 125 853 251 853 c 0
 347 853 436 799 436 688 c 0
 436 516 314 430 206 413 c 1
 205 397 202 351 202 313 c 0
 202 277 202 239 249 236 c 1
 261 246 272 250 280 250 c 0
 288 250 293 245 293 237 c 0
 293 214 250 161 201 161 c 0
 176 161 156 174 145 185 c 0
 133 197 127 203 127 267 c 0
 127 332 135 420 135 424 c 0
 137 449 173 484 196 484 c 2
 210 484 l 2xfd
177 -43 m 0
 155 -43 136 -27 136 -2 c 0
 136 33 179 83 216 83 c 0
 237 83 256 67 256 42 c 0xfb
 256 7 214 -43 177 -43 c 0
EndSplineSet
Validated: 1
EndChar

StartChar: greater
Encoding: 62 62 3
Width: 438
Flags: W
HStem: 73 77<54.1939 154.023>
VStem: 42 356
LayerCount: 2
Fore
SplineSet
42 348 m 0
 42 371 84 413 107 413 c 0
 110 413 262 337 391 294 c 0
 396 292 398 289 398 284 c 0
 398 269 381 242 357 227 c 0
 309 197 109 73 55 73 c 0
 47 73 43 78 43 85 c 0
 43 110 84 150 108 150 c 0
 133 150 272 231 281 237 c 1
 49 326 42 336 42 348 c 0
EndSplineSet
Validated: 1
EndChar

StartChar: equal
Encoding: 61 61 4
Width: 423
Flags: W
HStem: 200 77<69.2295 308.235> 336 77<69.2295 308.235>
VStem: 46 329<200.875 256.116 336.875 392.085>
LayerCount: 2
Fore
SplineSet
209 200 m 0
 124 200 79 188 59 188 c 0
 50 188 46 190 46 198 c 0
 46 218 79 256 106 263 c 0
 131 269 202 277 264 277 c 0
 374 277 375 253 375 244 c 0
 375 217 331 178 309 178 c 0
 292 178 320 200 209 200 c 0
209 336 m 0
 124 336 79 324 59 324 c 0
 50 324 46 326 46 334 c 0
 46 354 79 392 106 399 c 0
 131 405 202 413 264 413 c 0
 374 413 375 390 375 380 c 0
 375 353 331 314 309 314 c 0
 292 314 320 336 209 336 c 0
EndSplineSet
Validated: 1
EndChar

StartChar: less
Encoding: 60 60 5
Width: 435
Flags: W
HStem: 337 76<284.404 381.806>
VStem: 38 356
LayerCount: 2
Fore
SplineSet
394 138 m 0
 394 115 351 73 329 73 c 0
 326 73 174 149 45 192 c 0
 40 194 38 198 38 203 c 0
 38 218 55 244 79 259 c 0
 141 298 329 413 381 413 c 0
 389 413 393 408 393 401 c 0
 393 376 352 337 328 337 c 0
 303 337 164 255 155 249 c 1
 386 160 394 150 394 138 c 0
EndSplineSet
Validated: 1
EndChar

StartChar: semicolon
Encoding: 59 59 6
Width: 257
Flags: W
HStem: 278 125<107.092 198.614>
VStem: 93 120<290.497 390.503> 112 83<-132.983 24.2305>
LayerCount: 2
Fore
SplineSet
47 -213 m 0xa0
 47 -200 62 -176 84 -158 c 1
 99 -122 111 -65 112 -32 c 0
 113 -8 162 41 186 41 c 0
 191 41 195 39 195 33 c 0
 195 10 183 -75 154 -133 c 0
 125 -192 76 -222 56 -222 c 0
 49 -222 47 -218 47 -213 c 0xa0
93 319 m 0xc0
 93 354 135 403 172 403 c 0
 193 403 213 387 213 362 c 0
 213 327 170 278 133 278 c 0
 111 278 93 294 93 319 c 0xc0
EndSplineSet
Validated: 1
EndChar

StartChar: colon
Encoding: 58 58 7
Width: 279
Flags: W
HStem: -63 126<125.092 215.908> 278 125<126.092 217.862>
VStem: 111 119<-50.5366 50.4252 289.307 389.399>
LayerCount: 2
Fore
SplineSet
152 278 m 0
 130 278 112 295 112 319 c 0
 112 354 154 403 191 403 c 0
 213 403 232 387 232 362 c 0
 232 327 190 278 152 278 c 0
190 63 m 0
 214 63 230 45 230 22 c 0
 230 -14 188 -63 151 -63 c 0
 129 -63 111 -46 111 -22 c 0
 111 14 153 63 190 63 c 0
EndSplineSet
Validated: 1
EndChar

StartChar: nine
Encoding: 57 57 8
Width: 456
Flags: W
HStem: 243 76<90.008 243.993> 498 75<210.258 340.367>
VStem: 37 75<280 410.455> 275 75<-33.7569 323.423>
LayerCount: 2
Fore
SplineSet
341 449 m 0
 342 457 344 475 340 481 c 0
 336 487 310 498 279 498 c 0
 221 498 112 440 112 349 c 0
 112 329 134 319 164 319 c 0
 181 319 199 322 218 328 c 0
 306 356 321 394 341 449 c 0
329 573 m 0
 418 573 418 533 418 518 c 0
 418 446 350 287 350 101 c 0
 350 61 355 25 355 22 c 0
 355 -2 316 -41 292 -41 c 0
 283 -41 275 -41 275 51 c 0
 275 155 295 251 313 327 c 1
 250 273 170 243 113 243 c 0
 68 243 37 261 37 299 c 0
 37 433 212 573 329 573 c 0
EndSplineSet
Validated: 1
EndChar

StartChar: eight
Encoding: 56 56 9
Width: 448
VWidth: 1468
Flags: W
HStem: -40 75<111.001 203.244>
VStem: 35 76<0.5 169.632> 282 77<110.834 283.51>
LayerCount: 2
Fore
SplineSet
246 420 m 1
 272 445 300 471 331 496 c 1
 247 486 189 472 167 466 c 1
 198 452 224 436 246 420 c 1
182 349 m 1
 147 375 100 399 38 418 c 0
 23 422 30 448 52 470 c 0
 113 532 305 565 402 573 c 0
 416 574 421 560 421 536 c 0
 421 477 374 438 350 438 c 0
 345 438 341 440 339 444 c 1
 317 426 297 409 280 391 c 1
 351 322 359 246 359 216 c 0
 359 141 257 -40 64 -40 c 0
 46 -40 35 -18 35 19 c 0
 35 91 76 219 182 349 c 1
116 35 m 1
 226 37 282 99 282 174 c 0
 282 221 260 274 215 319 c 1
 134 213 111 116 111 67 c 0
 111 51 113 41 116 35 c 1
EndSplineSet
Validated: 1
EndChar

StartChar: seven
Encoding: 55 55 10
Width: 452
Flags: W
HStem: 498 75<82.5537 257.255>
VStem: 169 78<-18.4541 245>
LayerCount: 2
Fore
SplineSet
341 550 m 0
 341 528 293 469 264 322 c 1
 418 331 367 349 403 349 c 0
 411 349 416 344 416 336 c 0
 416 326 409 311 394 296 c 0
 358 260 295 253 252 249 c 1
 247 209 244 164 244 116 c 0
 244 71 247 37 247 34 c 0
 247 10 208 -28 184 -28 c 0
 173 -28 169 -27 169 66 c 0
 169 132 174 192 183 245 c 1
 144 243 108 239 86 229 c 1
 87 232 l 1
 73 218 58 210 48 210 c 0
 40 210 35 214 35 223 c 0
 35 225 42 302 197 317 c 1
 216 399 242 458 258 491 c 1
 240 496 219 498 199 498 c 0
 122 498 72 475 50 475 c 0
 42 475 38 478 38 487 c 0
 38 506 66 541 92 549 c 0
 157 568 209 573 247 573 c 0
 269 573 341 569 341 550 c 0
EndSplineSet
Validated: 1
EndChar

StartChar: six
Encoding: 54 54 11
Width: 452
Flags: W
HStem: -34 75<123.891 289.866> 227 76<168 298.185> 498 75<262.186 334.997>
VStem: 36 75<56.1303 216.073> 339 75<81.1682 185.922>
LayerCount: 2
Fore
SplineSet
339 126 m 0
 339 210 199 225 136 227 c 1
 121 188 111 158 111 128 c 0
 111 51 175 41 210 41 c 0
 268 41 339 71 339 126 c 0
160 -34 m 0
 52 -34 36 36 36 78 c 0
 36 190 219 573 331 573 c 0
 346 573 345 563 345 560 c 0
 345 538 309 499 283 498 c 1
 239 457 169 305 168 303 c 1
 269 302 414 281 414 176 c 0
 414 90 298 -34 160 -34 c 0
EndSplineSet
Validated: 1
EndChar

StartChar: five
Encoding: 53 53 12
Width: 429
VWidth: 1468
Flags: W
HStem: -54 74<115.106 256.662> 254 75<198.102 310.855> 498 75<212.507 387.249>
VStem: 28 75<33.2802 146.666> 122 75<310 484.349> 323 75<86.2487 244.649>
LayerCount: 2
Fore
SplineSet
397 560 m 0
 397 538 362 499 336 498 c 0
 284 497 243 494 211 487 c 1
 200 431 197 339 197 310 c 1
 221 319 257 329 292 329 c 0
 394 329 398 241 398 212 c 0
 398 68 260 -54 134 -54 c 0
 84 -54 28 -20 28 46 c 0
 28 103 73 177 111 177 c 0
 120 177 125 172 125 164 c 0
 125 146 103 129 103 95 c 0
 103 49 146 20 182 20 c 0
 244 20 323 57 323 163 c 0
 323 236 284 254 243 254 c 0
 191 254 151 228 133 228 c 0
 126 228 122 232 122 242 c 0
 122 249 122 303 127 362 c 0
 140 534 159 567 384 573 c 0
 397 573 397 563 397 560 c 0
EndSplineSet
Validated: 1
EndChar

StartChar: four
Encoding: 52 52 13
Width: 452
Flags: W
HStem: -35 79<271.419 321.617> 269 85<293.682 408.465> 553 20G<173 187 326.5 341>
VStem: 196 75<44.2705 233>
LayerCount: 2
Fore
SplineSet
240 -35 m 0
 196 -35 196 58 196 91 c 0
 196 145 203 198 208 233 c 1
 173 212 131 183 83 142 c 0
 70 131 58 125 49 125 c 0
 41 125 36 130 36 138 c 0
 36 139 36 140 36 141 c 0
 37 146 68 383 124 523 c 0
 133 547 163 573 183 573 c 0
 191 573 196 568 196 560 c 0
 196 557 153 456 117 227 c 1
 154 255 188 278 219 296 c 1
 232 361 251 436 277 519 c 0
 285 543 316 572 337 572 c 0
 345 572 350 568 350 560 c 0
 350 550 317 461 292 333 c 1
 328 348 356 354 377 354 c 0
 405 354 416 344 416 332 c 0
 416 307 375 269 354 269 c 0
 349 269 345 271 342 276 c 1
 339 279 335 280 329 280 c 0
 311 280 282 269 281 269 c 0
 274 217 271 175 271 141 c 0
 271 52 271 44 287 44 c 0
 289 44 291 44 293 44 c 1
 319 92 346 92 354 92 c 0
 362 92 367 88 367 80 c 0
 367 63 318 -35 240 -35 c 0
EndSplineSet
Validated: 1
EndChar

StartChar: three
Encoding: 51 51 14
Width: 449
Flags: W
HStem: -31 75<130.525 303.291> 498 75<104.984 260.452>
VStem: 36 371
LayerCount: 2
Fore
SplineSet
36 50 m 0
 36 73 75 111 97 111 c 0
 101 111 105 110 107 107 c 2
 107 107 117 94 128 83 c 0
 164 47 194 44 231 44 c 0
 305 44 334 83 337 127 c 1
 132 268 l 2
 128 271 127 274 127 278 c 0
 127 309 218 378 262 476 c 1
 239 490 208 498 178 498 c 0
 145 498 112 489 90 467 c 0
 58 435 36 440 36 456 c 0
 36 489 121 573 227 573 c 0
 281 573 340 550 340 530 c 0
 340 501 291 413 215 326 c 1
 407 194 l 2
 412 191 412 184 412 181 c 0
 412 87 311 -31 184 -31 c 0
 68 -31 36 48 36 50 c 0
EndSplineSet
Validated: 1
EndChar

StartChar: two
Encoding: 50 50 15
Width: 450
Flags: W
HStem: 24 75<151.012 379.833> 498 75<171.772 314.08>
VStem: 335 76<317.629 479.726>
LayerCount: 2
Fore
SplineSet
411 68 m 0
 411 46 375 6 350 6 c 0
 342 6 307 24 254 24 c 0
 158 24 71 -41 46 -41 c 0
 38 -41 33 -36 33 -28 c 0
 33 -18 40 -3 55 12 c 0
 61 18 92 44 144 96 c 0
 222 174 335 302 335 390 c 0
 335 465 290 498 239 498 c 0
 205 498 170 484 145 459 c 0
 135 449 134 445 126 437 c 0
 100 411 73 409 73 428 c 0
 73 465 180 573 288 573 c 0
 402 573 410 467 410 439 c 0
 410 304 228 118 187 77 c 1
 225 90 263 99 302 99 c 0
 328 99 411 90 411 68 c 0
EndSplineSet
Validated: 1
EndChar

StartChar: one
Encoding: 49 49 16
Width: 444
Flags: W
HStem: -9 74<265 368.259> 553 20G<251 265>
VStem: 197 75<65 448>
LayerCount: 2
Fore
SplineSet
98 372 m 0
 84 372 82 383 82 386 c 0
 82 405 110 438 136 446 c 1
 165 477 205 536 206 537 c 0
 221 559 244 573 258 573 c 0
 272 573 272 573 272 368 c 0
 272 259 271 131 265 65 c 1
 323 65 359 69 373 77 c 0
 393 90 409 88 409 73 c 0
 409 58 392 33 370 19 c 0
 333 -5 287 -8 240 -9 c 1
 225 -26 208 -34 197 -34 c 0
 189 -34 184 -30 184 -22 c 0
 184 -21 185 -21 187 -10 c 1
 116 -11 84 -20 69 -29 c 0
 49 -41 33 -39 33 -24 c 0
 33 -22 38 53 193 63 c 1
 196 122 197 212 197 319 c 2
 197 448 l 1
 170 416 129 372 98 372 c 0
EndSplineSet
Validated: 1
EndChar

StartChar: zero
Encoding: 48 48 17
Width: 449
VWidth: 1468
Flags: W
HStem: -31 75<165.211 292.531> 500 73<178.249 287>
VStem: 43 75<158.967 410.888> 337 75<103.057 383.211 537.125 563.332>
LayerCount: 2
Fore
SplineSet
37 -13 m 0
 37 -6 37 -6 73 55 c 1
 53 100 43 159 43 220 c 0
 43 443 166 573 281 573 c 0
 293 573 316 571 343 537 c 1
 343 537 367 568 390 568 c 0
 399 568 404 563 404 555 c 0
 404 548 404 548 371 489 c 1
 382 464 412 388 412 278 c 0
 412 64 287 -31 180 -31 c 0
 162 -31 130 -26 101 9 c 1
 100 8 76 -26 50 -26 c 0
 42 -26 37 -22 37 -13 c 0
314 386 m 1
 264 296 202 183 154 99 c 1
 169 72 193 44 229 44 c 0
 286 44 305 66 321 114 c 0
 332 148 337 188 337 228 c 0
 337 283 328 339 314 386 c 1
131 158 m 1
 143 179 143 179 290 444 c 1
 270 483 246 500 222 500 c 0
 169 500 118 410 118 272 c 0
 118 232 122 193 131 158 c 1
EndSplineSet
Validated: 1
EndChar

StartChar: slash
Encoding: 47 47 18
Width: 521
Flags: W
HStem: -33 606
LayerCount: 2
Fore
SplineSet
49 11 m 0
 83 54 363 478 427 546 c 0
 444 565 461 573 471 573 c 0
 479 573 484 568 484 561 c 0
 484 552 477 539 463 523 c 0
 418 474 138 54 96 1 c 0
 80 -19 58 -33 45 -33 c 0
 29 -33 31 -12 49 11 c 0
EndSplineSet
Validated: 1
EndChar

StartChar: period
Encoding: 46 46 19
Width: 265
Flags: W
HStem: -62 125<110.386 200.908>
VStem: 96 119<-49.5027 50.4252>
LayerCount: 2
Fore
SplineSet
176 63 m 0
 199 63 215 45 215 22 c 0
 215 -13 173 -62 136 -62 c 0
 114 -62 96 -46 96 -21 c 0
 96 15 139 63 176 63 c 0
EndSplineSet
Validated: 1
EndChar

StartChar: hyphen
Encoding: 45 45 20
Width: 421
Flags: W
HStem: 336 77<69.2295 308.235>
VStem: 46 329<336.875 392.085>
LayerCount: 2
Fore
SplineSet
209 336 m 0
 124 336 79 324 59 324 c 0
 50 324 46 326 46 334 c 0
 46 354 79 392 106 399 c 0
 131 405 202 413 264 413 c 0
 374 413 375 390 375 380 c 0
 375 353 331 314 309 314 c 0
 292 314 320 336 209 336 c 0
EndSplineSet
Validated: 1
EndChar

StartChar: comma
Encoding: 44 44 21
Width: 278
Flags: W
HStem: -200 263
VStem: 143 83<-110.709 46.2305>
LayerCount: 2
Fore
SplineSet
78 -191 m 0
 78 -178 93 -155 115 -137 c 1
 130 -101 142 -43 143 -10 c 0
 144 14 193 63 217 63 c 0
 222 63 226 60 226 54 c 0
 226 31 214 -53 185 -111 c 0
 156 -170 107 -200 87 -200 c 0
 80 -200 78 -196 78 -191 c 0
EndSplineSet
Validated: 1
EndChar

StartChar: plus
Encoding: 43 43 22
Width: 407
Flags: W
HStem: 182 99<243.3 359.781> 191 76<49.8801 163>
VStem: 158 77<63.7617 202 281 396.599>
LayerCount: 2
Fore
SplineSet
163 203 m 1xa0
 116 201 70 195 55 191 c 0
 43 188 38 194 38 202 c 0
 38 222 71 260 98 267 c 0x60
 111 270 134 273 163 276 c 1
 163 296 164 315 164 330 c 0
 164 400 230 413 231 413 c 0
 242 413 242 409 242 386 c 0
 242 359 241 321 241 281 c 1
 246 281 251 281 256 281 c 0
 366 281 367 257 367 248 c 0
 367 221 323 182 301 182 c 0
 281 182 312 197 240 202 c 1
 239 147 238 123 235 113 c 0
 228 87 190 51 168 51 c 0
 161 51 158 55 158 62 c 0
 158 63 161 81 163 203 c 1xa0
EndSplineSet
Validated: 1
EndChar

StartChar: asterisk
Encoding: 42 42 23
Width: 433
Flags: W
HStem: 34 374
VStem: 178 78<344 400.002>
LayerCount: 2
Fore
SplineSet
361 122 m 0
 361 99 321 59 298 59 c 0
 295 59 291 61 289 63 c 0
 288 64 281 76 250 114 c 1
 244 88 205 51 182 51 c 0
 176 51 172 52 172 59 c 0
 172 61 175 88 175 96 c 2
 175 96 175 104 176 148 c 1
 116 81 105 64 97 57 c 0
 82 41 67 34 57 34 c 0
 48 34 43 39 43 47 c 0
 43 63 70 97 165 202 c 1
 123 200 83 195 69 191 c 0
 67 191 65 191 63 191 c 0
 55 191 52 196 52 202 c 0
 52 219 80 260 115 268 c 1
 61 326 47 335 47 336 c 0
 44 338 43 342 43 345 c 0
 43 368 83 408 106 408 c 0
 117 408 151 372 178 344 c 1
 178 345 l 2
 178 369 221 413 245 413 c 0
 256 413 256 409 256 386 c 0
 256 364 256 333 256 300 c 1
 336 385 361 407 381 407 c 0
 389 407 393 402 393 393 c 0
 393 383 386 369 371 353 c 0
 369 351 359 346 297 281 c 1
 376 277 381 260 381 248 c 0
 381 223 342 187 320 183 c 1
 343 154 361 132 361 122 c 0
EndSplineSet
Validated: 1
EndChar

StartChar: parenright
Encoding: 41 41 24
Width: 246
Flags: W
HStem: -31 21G<42.5 78.5> 833 20G<81 95>
VStem: 134 75<157.601 659.114>
LayerCount: 2
Fore
SplineSet
47 -31 m 0
 38 -31 32 -26 32 -17 c 0
 32 -9 37 3 49 17 c 0
 132 117 134 369 134 373 c 0
 134 645 62 755 35 782 c 0
 33 784 32 788 32 791 c 0
 32 813 69 853 93 853 c 0
 97 853 101 851 104 848 c 0
 118 834 209 732 209 421 c 0
 209 167 110 -31 47 -31 c 0
EndSplineSet
Validated: 1
EndChar

StartChar: parenleft
Encoding: 40 40 25
Width: 248
Flags: W
HStem: -31 21G<143.5 166> 833 20G<169.5 205.5>
VStem: 38 75<159.567 656.249>
LayerCount: 2
Fore
SplineSet
38 401 m 0
 38 655 138 853 201 853 c 0
 210 853 215 848 215 839 c 0
 215 831 210 819 198 805 c 0
 115 705 113 453 113 449 c 0
 113 177 184 67 211 40 c 0
 214 37 215 34 215 30 c 0
 215 8 178 -31 154 -31 c 0
 133 -31 38 84 38 401 c 0
EndSplineSet
Validated: 1
EndChar

StartChar: quotesingle
Encoding: 39 39 26
Width: 350
Flags: W
HStem: 644 84<71.4809 187.419>
VStem: 54 240
LayerCount: 2
Fore
SplineSet
132 728 m 0
 157 728 179 733 192 740 c 1
 200 752 206 768 212 786 c 0
 221 813 265 853 286 853 c 0
 291 853 294 851 294 845 c 0
 294 821 220 644 68 644 c 0
 59 644 54 645 54 653 c 0
 54 674 100 728 132 728 c 0
EndSplineSet
Validated: 1
EndChar

StartChar: ampersand
Encoding: 38 38 27
Width: 691
Flags: W
HStem: -29 74<117.075 297.051> 779 74<121.431 232.12>
VStem: 36 74<51.8711 229.718 623.247 766.54> 242 75<576.327 771.17>
LayerCount: 2
Fore
SplineSet
645 380 m 0
 654 380 659 375 659 366 c 0
 659 349 572 225 478 135 c 1
 577 -33 579 -100 579 -102 c 0
 579 -125 543 -163 518 -163 c 0
 491 -163 529 -135 407 74 c 1
 303 -5 212 -29 139 -29 c 0
 101 -29 36 -21 36 72 c 0
 36 162 95 293 161 438 c 1
 46 599 33 625 33 647 c 0
 33 780 150 853 219 853 c 0
 317 853 317 759 317 726 c 0
 317 677 312 643 242 486 c 1
 330 363 395 271 455 174 c 1
 568 285 599 380 645 380 c 0
187 45 m 0
 245 45 311 62 383 113 c 1
 326 206 258 302 197 388 c 1
 148 277 110 181 110 119 c 0
 110 52 155 45 187 45 c 0
170 779 m 0
 120 779 107 737 107 695 c 0
 107 694 l 1
 111 678 122 656 205 538 c 1
 242 626 242 649 242 677 c 0
 242 736 230 779 170 779 c 0
EndSplineSet
Validated: 1
EndChar

StartChar: percent
Encoding: 37 37 28
Width: 542
Flags: W
HStem: 35 81<327.5 420.965> 178 81<360.265 419.575> 292 81<89.5 183.082> 435 81<123.265 181.608> 553 20G<470 479>
VStem: 40 81<374.476 434.209> 184 82<373.981 463> 277 82<117.172 177.209> 422 81<116.981 206>
LayerCount: 2
Fore
SplineSet
422 124 m 0
 420 175 365 178 359 178 c 1
 359 170 l 2
 359 142 377 116 412 116 c 0
 422 116 422 116 422 124 c 0
351 35 m 0
 304 35 277 67 277 108 c 0
 277 178 354 259 419 259 c 0
 471 259 503 228 503 184 c 0
 503 120 427 35 351 35 c 0
184 381 m 0
 182 432 128 435 122 435 c 1
 122 432 121 430 121 427 c 0
 121 399 140 373 175 373 c 0
 185 373 184 373 184 381 c 0
113 292 m 0
 66 292 40 324 40 365 c 0
 40 435 117 516 182 516 c 0
 234 516 266 485 266 441 c 0
 266 377 189 292 113 292 c 0
53 11 m 0
 87 54 367 478 431 546 c 0
 448 565 465 573 475 573 c 0
 483 573 488 568 488 561 c 0
 488 552 481 539 467 523 c 0
 422 474 142 54 100 1 c 0
 84 -19 62 -33 49 -33 c 0
 33 -33 35 -12 53 11 c 0
EndSplineSet
Validated: 1
EndChar

StartChar: dollar
Encoding: 36 36 29
Width: 637
Flags: W
HStem: -29 21G<291 306> 262 67<170.071 238.706> 440 63<182.146 297> 451 69<373 496> 553 20G<356 365.5>
VStem: 35 69<142.291 211.24> 74 69<357.77 414.238> 293 75<94 236 329 440 512 559.077> 465 103<409.854 449.831> 530 69<115.541 181.839>
LayerCount: 2
Fore
SplineSet
465 390 m 0xdb80
 465 405 487 426 496 451 c 1
 450 451 408 450 371 447 c 1
 370 408 370 362 369 316 c 1
 502 289 599 249 599 175 c 0
 599 162 578 46 357 27 c 1
 351 3 317 -29 295 -29 c 0
 287 -29 283 -25 283 -17 c 2
 283 -17 285 -5 287 24 c 1
 110 24 35 85 35 164 c 0
 35 189 74 221 93 221 c 0
 100 221 104 218 104 209 c 0xdd40
 104 115 241 97 290 94 c 1
 291 140 292 197 293 253 c 1
 272 257 253 260 238 262 c 0
 146 276 74 294 74 349 c 0
 74 377 93 407 112 426 c 0
 131 445 170 482 298 503 c 1xeb
 300 551 350 573 362 573 c 0
 369 573 374 569 374 561 c 2
 374 561 374 550 373 512 c 1
 423 517 484 520 556 520 c 0
 568 520 568 510 568 507 c 0
 568 467 511 377 479 377 c 0
 472 377 465 382 465 390 c 0xdb80
297 440 m 1xeb
 219 430 168 415 143 399 c 1
 143 398 143 396 143 395 c 0
 143 353 243 337 295 329 c 1
 296 370 296 409 297 440 c 1xeb
364 93 m 1
 458 97 510 117 530 131 c 1xc940
 529 183 449 215 368 236 c 1
 367 182 366 132 364 93 c 1
EndSplineSet
Validated: 1
EndChar

StartChar: numbersign
Encoding: 35 35 30
Width: 509
Flags: W
HStem: 132 71<178 266.406> 141 74<179.457 268 349 448.314> 251 77<53.7667 111> 269 71<189 294> 283 78<378.356 455.482> 443 20G<180 195>
VStem: 96 75<39.6892 121> 129 74<344.395 453.787> 253 81<-41.8503 138.959>
LayerCount: 2
Fore
SplineSet
334 11 m 0x0d80
 334 -12 293 -51 271 -51 c 0
 262 -51 253 -47 253 -5 c 0
 253 42 264 119 268 141 c 1x4d80
 234 138 199 135 173 132 c 1
 172 114 171 99 171 92 c 0
 171 68 132 29 108 29 c 0
 100 29 96 33 96 41 c 0
 96 52 97 83 100 121 c 1
 88 119 78 117 67 115 c 0
 49 106 38 109 38 121 c 0
 38 138 64 177 105 189 c 1
 107 218 109 239 111 259 c 1
 95 256 81 254 67 251 c 0
 49 242 38 245 38 257 c 0
 38 258 45 311 117 328 c 1xa680
 121 363 125 392 129 408 c 0
 136 433 169 463 191 463 c 0
 199 463 203 459 203 451 c 0
 203 450 198 435 189 340 c 1x1580
 226 345 270 349 311 353 c 1
 317 379 337 458 387 458 c 0
 395 458 400 454 400 446 c 0
 400 445 387 401 377 358 c 1
 406 360 430 361 446 361 c 0
 459 361 467 362 467 350 c 0
 467 339 459 323 444 308 c 0
 422 286 422 286 361 283 c 1
 357 263 353 241 349 220 c 1
 390 223 425 225 446 225 c 0
 459 225 467 226 467 214 c 0
 467 189 426 148 402 148 c 0
 371 148 372 148 338 146 c 1
 331 95 328 64 328 45 c 0
 328 14 334 21 334 11 c 0x0d80
294 279 m 1
 238 275 193 270 183 269 c 1
 181 247 180 224 178 203 c 1x9480
 209 207 245 212 281 215 c 1
 285 237 290 259 294 279 c 1
EndSplineSet
Validated: 1
EndChar

StartChar: quotedbl
Encoding: 34 34 31
Width: 345
Flags: W
HStem: 576 277
VStem: 47 81<588.374 755.286> 204 89<582.666 833.816>
LayerCount: 2
Fore
SplineSet
293 643 m 0
 293 622 256 576 230 576 c 0
 215 576 204 590 204 633 c 0
 204 682 218 747 218 780 c 0
 218 823 270 853 285 853 c 0
 296 853 296 845 296 837 c 0
 296 801 282 730 282 686 c 0
 282 647 293 654 293 643 c 0
128 646 m 0
 128 624 89 579 65 579 c 0
 55 579 47 587 47 610 c 0
 47 624 50 639 54 655 c 0
 66 705 91 764 101 795 c 0
 109 820 145 853 166 853 c 0
 173 853 177 849 177 842 c 0
 177 825 125 714 125 665 c 0
 125 647 128 655 128 646 c 0
EndSplineSet
Validated: 1
EndChar

StartChar: exclam
Encoding: 33 33 32
Width: 253
Flags: W
HStem: -56 125<112.386 203.614> 833 20G<174 189>
VStem: 98 120<-43.5027 56.4252> 111 75<156.138 833.375>
LayerCount: 2
Fore
SplineSet
186 618 m 0xd0
 186 448 195 246 195 215 c 0
 195 188 156 152 133 152 c 0
 120 152 120 162 120 166 c 0
 120 170 111 434 111 573 c 0
 111 674 114 751 123 795 c 0
 128 820 163 853 185 853 c 0
 193 853 198 849 198 841 c 0
 198 839 186 801 186 618 c 0xd0
178 69 m 0
 201 69 218 51 218 28 c 0
 218 -7 175 -56 138 -56 c 0
 116 -56 98 -40 98 -15 c 0xe0
 98 21 141 69 178 69 c 0
EndSplineSet
Validated: 1
EndChar

StartChar: B
Encoding: 66 66 35
Width: 552
Flags: W
HStem: -38 74<249.567 408.867> 779 74<154.865 420.08>
VStem: 62 75<-2.06769 719.023> 421 74<701.24 767.843> 437 75<64.6187 239.314>
LayerCount: 2
Fore
SplineSet
146 48 m 0xe8
 146 71 185 109 207 109 c 0
 211 109 214 108 217 105 c 2
 217 105 225 94 235 84 c 0
 271 48 317 36 344 36 c 0
 428 36 437 101 437 132 c 0xe8
 437 244 353 294 215 375 c 0
 194 387 173 400 150 414 c 0
 138 421 145 445 165 465 c 0
 172 472 255 543 321 609 c 0
 416 704 421 733 421 753 c 1
 392 777 286 779 285 779 c 0
 241 779 195 773 155 760 c 1
 140 662 137 499 137 355 c 0
 137 239 139 136 139 92 c 0
 139 0 59 -35 43 -35 c 0
 31 -35 30 -27 30 -22 c 0
 30 -8 44 14 65 29 c 1
 65 39 l 2
 65 42 62 232 62 308 c 0
 62 501 69 639 82 723 c 1
 33 686 33 717 33 719 c 0
 33 737 49 762 98 792 c 1
 116 840 152 849 160 849 c 0
 168 849 173 845 173 836 c 0
 173 833 173 830 172 827 c 1
 228 847 284 853 330 853 c 0
 331 853 495 852 495 803 c 0xf0
 495 720 408 622 238 470 c 1
 442 349 512 307 512 179 c 0
 512 58 398 -38 296 -38 c 0
 210 -38 146 32 146 48 c 0xe8
EndSplineSet
Validated: 1
EndChar

StartChar: C
Encoding: 67 67 36
Width: 736
Flags: W
HStem: -35 73<235.081 510.457> 779 74<407 693.321>
VStem: 37 74<173.198 531.009>
AnchorPoint: "top" 336 959 basechar 0
AnchorPoint: "bottom" 324 -1 basechar 0
LayerCount: 2
Fore
SplineSet
37 309 m 0
 37 814 474 849 688 853 c 0
 701 853 702 842 702 839 c 0
 702 817 668 779 642 779 c 0
 499 777 304 756 205 657 c 0
 130 582 111 460 111 355 c 0
 111 195 178 38 368 38 c 0
 523 38 653 133 691 133 c 0
 698 133 702 129 702 121 c 0
 702 105 683 78 660 66 c 0
 523 -5 411 -35 322 -35 c 0
 60 -35 37 218 37 309 c 0
EndSplineSet
Validated: 1
EndChar

StartChar: D
Encoding: 68 68 37
Width: 734
Flags: W
HStem: -37 74<241.42 440.563> 779 66<194.758 439.129>
VStem: 63 74<138 653.664> 626 74<245.859 576.89>
LayerCount: 2
Fore
SplineSet
30 657 m 0
 30 669 41 692 84 733 c 1
 102 834 143 845 160 845 c 0
 168 845 174 841 174 832 c 0
 174 822 169 820 163 795 c 1
 226 834 292 853 356 853 c 0
 539 853 700 700 700 443 c 0
 700 99 434 -37 307 -37 c 0
 209 -37 155 16 133 45 c 1
 114 -3 70 -39 44 -39 c 0
 32 -39 30 -31 30 -26 c 0
 30 -12 44 10 65 25 c 1
 65 35 l 2
 65 38 63 229 63 305 c 0
 63 442 66 566 75 658 c 1
 53 640 30 638 30 657 c 0
626 396 m 0
 626 643 467 779 308 779 c 0
 254 779 200 763 152 730 c 1
 140 631 137 483 137 352 c 0
 137 268 138 191 139 138 c 1
 155 151 172 155 179 148 c 0
 182 145 189 121 218 92 c 0
 266 44 327 37 355 37 c 0
 437 37 626 106 626 396 c 0
EndSplineSet
Validated: 1
EndChar

StartChar: E
Encoding: 69 69 38
Width: 728
Flags: W
HStem: 54 78<242.055 536.554> 411 75<239.732 551.915> 777 76<306.614 689.754>
VStem: 65 75<60.4176 363.892 401 694.998>
AnchorPoint: "bottom" 293 68 basechar 0
AnchorPoint: "top" 374 958 basechar 0
LayerCount: 2
Fore
SplineSet
161 848 m 0
 169 848 174 844 174 835 c 0
 174 822 166 823 156 761 c 1
 324 844 509 853 577 853 c 0
 610 853 639 851 663 850 c 0
 696 848 698 849 698 837 c 0
 698 812 658 773 634 773 c 0
 633 773 549 777 526 777 c 0
 392 777 268 752 149 699 c 1
 141 614 139 505 138 401 c 1
 241 464 363 486 455 486 c 0
 486 486 583 481 583 455 c 0
 583 433 546 394 522 394 c 0
 521 394 483 411 408 411 c 0
 261 411 164 360 137 344 c 1
 137 233 140 135 140 92 c 0
 140 72 139 69 137 60 c 1
 245 101 390 132 537 132 c 0
 545 132 548 127 548 120 c 0
 548 95 506 54 482 54 c 0
 325 54 170 15 74 -25 c 1
 63 -32 51 -37 42 -37 c 0
 34 -37 29 -34 29 -26 c 0
 29 5 65 19 65 38 c 0
 65 41 63 232 63 308 c 0
 63 728 90 848 161 848 c 0
EndSplineSet
Validated: 1
EndChar

StartChar: F
Encoding: 70 70 39
Width: 726
Flags: W
HStem: 411 75<250.08 558.921> 777 76<304.614 687.946>
VStem: 64 74<-0.429092 359.049 395 694.95>
LayerCount: 2
Fore
SplineSet
524 777 m 0
 390 777 266 752 147 699 c 1
 139 613 136 501 136 395 c 1
 241 463 368 486 463 486 c 0
 494 486 590 481 590 455 c 0
 590 433 553 394 529 394 c 0
 528 394 491 411 416 411 c 0
 260 411 161 354 136 338 c 1
 136 229 138 134 138 92 c 0
 138 0 58 -36 42 -36 c 0
 30 -36 29 -28 29 -23 c 0
 29 -9 43 13 64 28 c 1
 64 38 l 2
 64 41 61 232 61 308 c 0
 61 758 97 804 120 827 c 0
 135 842 149 848 159 848 c 0
 167 848 172 844 172 835 c 0
 172 822 164 823 154 761 c 1
 322 844 507 853 575 853 c 0
 608 853 638 851 662 850 c 0
 695 848 696 849 696 837 c 0
 696 812 657 773 633 773 c 0
 632 773 548 777 524 777 c 0
EndSplineSet
Validated: 1
EndChar

StartChar: G
Encoding: 71 71 40
Width: 735
Flags: W
HStem: -13 74<260.251 432.156> 388 91<571.636 698.707> 779 74<407.527 694.321>
VStem: 37 74<219.345 531.766> 506 74<144.361 401.88>
LayerCount: 2
Fore
SplineSet
704 449 m 0
 704 427 667 388 643 388 c 0
 634 388 626 399 569 403 c 1
 576 364 580 331 580 300 c 0
 580 84 416 -13 313 -13 c 0
 214 -13 37 111 37 310 c 0
 37 819 487 850 689 853 c 0
 702 853 703 842 703 839 c 0
 703 817 669 779 643 779 c 0
 499 777 304 756 205 657 c 0
 129 581 111 458 111 357 c 0
 111 180 274 61 359 61 c 0
 488 61 506 186 506 253 c 0
 506 331 484 395 484 403 c 1
 336 392 254 336 230 317 c 0
 207 299 185 299 185 317 c 0
 185 370 364 479 577 479 c 0
 581 479 704 479 704 449 c 0
EndSplineSet
Validated: 1
EndChar

StartChar: H
Encoding: 72 72 41
Width: 678
VWidth: 1448
Flags: W
HStem: -41 76<475.024 548.768> -31 21G<43.5 56.5> 388 76<491.344 641.058> 833 20G<85 98.5>
VStem: 36 72<611.573 843.103> 52 74<182 793.859> 389 76<36.6251 361.692>
LayerCount: 2
Fore
SplineSet
435 -41 m 0xb6
 395 -41 389 70 389 143 c 0
 389 205 394 280 407 364 c 1
 288 329 168 250 110 26 c 0
 102 -7 66 -31 47 -31 c 0
 40 -31 35 -28 35 -20 c 0
 35 -18 35 -15 36 -12 c 0x7a
 39 -2 52 373 52 556 c 0x76
 52 735 43 777 38 785 c 0
 37 788 36 791 36 794 c 0
 36 817 74 853 96 853 c 0
 101 853 105 852 108 847 c 0x7a
 114 837 126 809 126 602 c 0
 126 466 121 300 116 182 c 1
 161 257 253 373 418 430 c 1
 448 587 514 788 548 822 c 0
 563 837 579 845 589 845 c 0
 597 845 601 841 601 833 c 0
 601 829 526 656 489 449 c 1
 539 460 589 464 640 464 c 0
 648 464 652 459 652 452 c 0
 652 427 612 388 588 388 c 0
 548 388 511 385 478 380 c 1
 473 339 465 269 465 195 c 0
 465 93 480 43 489 35 c 1
 553 36 573 82 602 82 c 0
 610 82 614 78 614 70 c 0
 614 34 519 -41 435 -41 c 0xb6
EndSplineSet
Validated: 1
EndChar

StartChar: I
Encoding: 73 73 42
Width: 616
Flags: W
HStem: 58 77<291.615 535.554> 776 77<323.957 574.554>
VStem: 220 67<108 568.671>
AnchorPoint: "bottom" 263 66 basechar 0
AnchorPoint: "top" 321 957 basechar 0
LayerCount: 2
Fore
SplineSet
520 776 m 0
 452 776 384 769 321 757 c 1
 291 612 287 330 287 211 c 0
 287 162 288 125 288 108 c 1
 365 125 450 135 536 135 c 0
 544 135 547 131 547 124 c 0
 547 99 505 58 481 58 c 0
 313 58 147 13 54 -30 c 0
 38 -38 28 -33 28 -22 c 0
 28 24 110 60 221 91 c 1
 221 113 220 139 220 168 c 0
 220 341 228 613 260 744 c 1
 139 716 92 684 75 684 c 0
 69 684 67 688 67 696 c 0
 67 714 92 746 118 758 c 0
 214 802 324 825 326 825 c 0
 404 842 489 853 575 853 c 0
 583 853 586 849 586 842 c 0
 586 817 544 776 520 776 c 0
EndSplineSet
Validated: 1
EndChar

StartChar: J
Encoding: 74 74 43
Width: 730
Flags: W
HStem: -51 75<219.982 373.456> 368 74<176.856 251.249> 777 76<411.53 691.101>
VStem: 86 75<85.0885 344.248> 424 75<102.916 538.566>
LayerCount: 2
Fore
SplineSet
563 777 m 0
 515 777 463 776 409 772 c 1
 470 594 499 437 499 310 c 0
 499 19 344 -51 264 -51 c 0
 91 -51 86 146 86 168 c 0
 86 405 220 442 245 442 c 0
 257 442 261 437 261 429 c 0
 261 408 226 368 200 368 c 0
 177 368 161 282 161 216 c 0
 161 99 226 24 311 24 c 0
 337 24 359 31 371 43 c 0
 423 95 424 243 424 261 c 0
 424 390 393 561 319 761 c 1
 132 733 58 678 36 678 c 0
 30 678 28 682 28 691 c 0
 28 708 49 737 73 749 c 0
 240 834 439 853 614 853 c 0
 700 853 700 852 700 839 c 0
 700 814 661 776 637 776 c 0
 636 776 626 777 563 777 c 0
EndSplineSet
Validated: 1
EndChar

StartChar: K
Encoding: 75 75 44
Width: 898
Flags: W
HStem: -30 21G<47.5 63> -21 74<576.383 805.253> 779 74<544.969 695.656>
VStem: 38 73<-21.8342 141.897 607.574 843.948> 54 73<249 793.905>
LayerCount: 2
Fore
SplineSet
38 794 m 0xb0
 38 817 76 853 98 853 c 0
 102 853 105 852 108 849 c 0
 122 835 127 742 127 601 c 0
 127 503 124 383 120 249 c 1
 286 685 502 853 690 853 c 0
 699 853 704 847 704 839 c 0
 704 815 668 779 644 779 c 0
 535 779 441 717 351 590 c 1
 351 579 l 2
 351 395 474 53 690 53 c 0
 732 53 775 57 801 68 c 1
 815 87 836 101 850 101 c 0
 862 101 864 91 864 87 c 0
 864 85 856 -21 644 -21 c 0x68
 420 -21 301 284 281 475 c 1
 184 294 126 86 111 23 c 0
 105 -1 74 -30 52 -30 c 0
 43 -30 38 -25 38 -15 c 0xb0
 38 -9 54 315 54 556 c 0xa8
 54 789 38 792 38 794 c 0xb0
EndSplineSet
Validated: 1
EndChar

StartChar: L
Encoding: 76 76 45
Width: 581
Flags: W
HStem: 59 77<242.055 536.554> 833 20G<156 165>
VStem: 65 75<43 724.846>
LayerCount: 2
Fore
SplineSet
65 43 m 0
 65 46 63 236 63 312 c 0
 63 762 98 808 121 831 c 0
 136 846 151 853 161 853 c 0
 169 853 174 849 174 840 c 0
 174 814 137 824 137 359 c 0
 137 243 140 140 140 96 c 0
 140 77 139 74 137 65 c 1
 245 106 390 136 537 136 c 0
 545 136 548 132 548 125 c 0
 548 100 506 59 482 59 c 0
 325 59 170 20 74 -20 c 1
 63 -27 50 -32 41 -32 c 0
 34 -32 29 -29 29 -21 c 0
 29 9 65 23 65 43 c 0
EndSplineSet
Validated: 1
EndChar

StartChar: M
Encoding: 77 77 46
Width: 1055
Flags: W
HStem: -31 21G<36 49> 495 74<400.695 611.269> 833 20G<150.5 161 928.5 955>
VStem: 62 74<2.01773 706.381> 888 75<279.606 737>
LayerCount: 2
Fore
SplineSet
1022 30 m 0
 1022 7 984 -32 961 -32 c 0
 894 -32 888 421 888 639 c 0
 888 678 889 711 889 737 c 1
 688 523 527 495 454 495 c 0
 316 495 166 687 148 711 c 1
 138 613 136 480 136 361 c 0
 136 245 138 142 138 97 c 0
 138 3 56 -31 42 -31 c 0
 30 -31 29 -23 29 -18 c 0
 29 -4 43 18 64 33 c 1
 64 43 l 2
 64 46 62 227 62 313 c 0
 62 574 72 739 102 806 c 0
 113 831 142 853 159 853 c 0
 163 853 167 852 169 850 c 0
 172 847 210 773 291 692 c 0
 402 581 475 569 502 569 c 0
 577 569 646 599 706 638 c 0
 860 738 906 853 951 853 c 0
 959 853 964 849 964 840 c 2
 964 840 963 778 963 689 c 0
 963 -7 1022 59 1022 30 c 0
EndSplineSet
Validated: 1
EndChar

StartChar: N
Encoding: 78 78 47
Width: 999
Flags: W
HStem: -31 74<633.995 793.379> 774 75<150.91 230.221 703.387 810.824>
VStem: 62 74<1.45324 726.257> 888 75<195.592 654.612>
AnchorPoint: "bottom" 700 2 basechar 0
AnchorPoint: "top" 516 960 basechar 0
LayerCount: 2
Fore
SplineSet
888 375 m 0
 888 529 854 774 753 774 c 0
 702 774 661 707 635 707 c 0
 629 707 621 710 621 720 c 0
 621 757 728 849 801 849 c 0
 958 849 963 473 963 424 c 0
 963 143 825 -31 683 -31 c 0
 339 -31 486 714 156 775 c 1
 139 676 136 502 136 362 c 0
 136 246 138 142 138 97 c 0
 138 2 56 -31 42 -31 c 0
 30 -31 29 -23 29 -18 c 0
 29 -4 44 19 64 33 c 1
 64 44 l 2
 64 47 62 227 62 313 c 0
 62 574 72 739 102 806 c 0
 113 830 140 853 159 853 c 0
 574 853 404 43 732 43 c 0
 887 43 888 364 888 375 c 0
EndSplineSet
Validated: 1
EndChar

StartChar: O
Encoding: 79 79 48
Width: 737
VWidth: 1748
Flags: W
HStem: -14 74<278.291 495.737> 779 74<298.974 467.602>
VStem: 37 74<237 533.74> 629 74<226.581 567.33>
AnchorPoint: "bottom" 374 20 basechar 0
AnchorPoint: "top" 386 959 basechar 0
LayerCount: 2
Fore
SplineSet
629 410 m 0
 629 543 518 779 368 779 c 0
 246 779 111 604 111 380 c 0
 111 225 243 60 407 60 c 0
 595 60 629 263 629 410 c 0
37 334 m 0
 37 636 261 853 415 853 c 0
 586 853 703 606 703 456 c 0
 703 84 484 -14 359 -14 c 0
 180 -14 37 159 37 334 c 0
EndSplineSet
Validated: 1
EndChar

StartChar: P
Encoding: 80 80 49
Width: 548
Flags: W
HStem: -31 21G<36 50> 367 72<136 265.804> 776 77<151.12 172.088 173.78 376.417>
VStem: 61 75<1.93231 373.199 439 727.939> 441 75<572.769 717.901>
LayerCount: 2
Fore
SplineSet
516 693 m 0
 516 534 337 393 136 367 c 1
 136 359 l 2
 136 243 138 140 138 96 c 0
 138 4 58 -31 42 -31 c 0
 30 -31 29 -23 29 -18 c 0
 29 -4 43 18 64 33 c 1
 64 43 l 2
 64 46 61 236 61 312 c 0
 61 515 68 657 83 740 c 1
 71 734 43 718 43 742 c 0
 43 774 87 800 102 808 c 1
 116 836 144 853 159 853 c 0
 168 853 174 847 172 836 c 1
 210 847 246 852 281 852 c 0
 407 852 516 789 516 693 c 0
155 768 m 1
 142 688 137 562 136 439 c 1
 197 440 441 475 441 643 c 0
 441 721 340 776 230 776 c 0
 205 776 180 774 155 768 c 1
EndSplineSet
Validated: 1
EndChar

StartChar: Q
Encoding: 81 81 50
Width: 904
VWidth: 1748
Flags: W
HStem: -14 73<283.291 477.346 591.361 807.271> 249 70<330.853 391.548> 779 74<303.974 472.602>
VStem: 42 74<236.884 533.74> 634 74<226.277 567.33>
LayerCount: 2
Fore
SplineSet
868 94 m 0
 868 92 860 -13 648 -13 c 0
 587 -13 545 3 515 28 c 1
 462 -3 407 -14 364 -14 c 0
 185 -14 42 159 42 334 c 0
 42 636 266 853 420 853 c 0
 591 853 708 606 708 456 c 0
 708 276 657 160 590 88 c 1
 615 71 648 61 694 61 c 0
 736 61 779 64 805 75 c 1
 819 94 840 108 854 108 c 0
 866 108 868 98 868 94 c 0
556 120 m 1
 620 191 634 313 634 410 c 0
 634 543 523 779 373 779 c 0
 251 779 116 604 116 380 c 0
 116 225 248 59 412 59 c 0
 436 59 459 63 478 69 c 1
 441 122 427 187 393 221 c 0
 362 252 333 240 324 249 c 0
 321 252 320 255 320 259 c 0
 320 281 356 319 381 319 c 0
 495 319 494 196 556 120 c 1
EndSplineSet
Validated: 1
EndChar

StartChar: R
Encoding: 82 82 51
Width: 697
Flags: W
HStem: -31 74<404.028 606.253> 776 77<151.12 172.088 173.78 376.417>
VStem: 64 74<4.0008 260 439 723.746> 441 75<568.1 717.901>
LayerCount: 2
Fore
SplineSet
516 693 m 0
 516 548 366 412 173 373 c 1
 271 219 385 43 492 43 c 0
 534 43 576 47 602 58 c 1
 616 77 637 91 651 91 c 0
 663 91 665 81 665 77 c 0
 665 75 657 -31 445 -31 c 4
 383 -31 240 99 136 260 c 1
 137 187 138 127 138 96 c 0
 138 4 58 -31 42 -31 c 0
 30 -31 29 -23 29 -18 c 0
 29 -4 43 18 64 33 c 1
 64 43 l 2
 64 46 61 236 61 312 c 0
 61 515 68 657 83 740 c 1
 71 734 43 718 43 742 c 0
 43 774 87 800 102 808 c 1
 116 836 144 853 159 853 c 0
 168 853 174 847 172 836 c 1
 210 847 246 852 281 852 c 0
 407 852 516 789 516 693 c 0
155 768 m 1
 142 688 137 562 136 439 c 1
 197 440 441 475 441 643 c 0
 441 721 340 776 230 776 c 0
 205 776 180 774 155 768 c 1
EndSplineSet
Validated: 1
EndChar

StartChar: S
Encoding: 83 83 52
Width: 630
Flags: W
HStem: -39 74<71.9891 290.762> 779 74<383.345 580.99>
VStem: 93 74<449.672 603.179> 474 74<160.655 283.439> 513 87<734.083 778.755>
LayerCount: 2
Fore
SplineSet
176 35 m 0xf0
 268 35 474 109 474 215 c 0xf0
 474 390 93 264 93 471 c 0
 93 666 338 853 562 853 c 0
 573 853 600 846 600 816 c 0
 600 778 560 721 527 721 c 0
 518 721 513 725 513 734 c 0
 513 754 541 774 513 779 c 1xe8
 367 779 167 679 167 518 c 0
 167 343 548 465 548 263 c 0
 548 104 290 -39 131 -39 c 0
 43 -39 30 4 30 30 c 0
 30 56 69 91 91 91 c 0
 117 91 82 35 176 35 c 0xf0
EndSplineSet
Validated: 1
EndChar

StartChar: T
Encoding: 84 84 53
Width: 925
Flags: W
HStem: 779 74<662.816 856.495>
VStem: 306 74<-25.8589 126.878 275 444.292>
LayerCount: 2
Fore
SplineSet
311 275 m 1
 315 400 324 546 340 649 c 1
 280 629 212 606 136 581 c 1
 179 529 252 428 311 275 c 1
894 797 m 0
 894 773 856 736 834 736 c 0
 810 736 830 779 775 779 c 0
 727 779 627 747 411 674 c 1
 381 460 380 101 380 36 c 0
 380 -8 341 -33 320 -33 c 0
 313 -33 307 -30 306 -24 c 0
 235 361 37 551 32 555 c 0
 29 557 28 561 28 565 c 0
 28 584 53 616 79 624 c 0
 183 658 274 689 352 715 c 1
 369 784 415 785 416 785 c 0
 424 785 430 781 430 772 c 0
 430 769 422 738 422 738 c 1
 645 813 761 853 824 853 c 0
 891 853 894 798 894 797 c 0
EndSplineSet
Validated: 1
EndChar

StartChar: U
Encoding: 85 85 54
Width: 851
VWidth: 1748
Flags: W
HStem: -23 74<161.267 314.209 663.578 755.279> 833 20G<638.5 652.5>
VStem: 32 75<112.858 521.614> 587 74<78.5493 402 556.731 843.624> 751 76<52.4182 112.646>
AnchorPoint: "bottom" 206.562 11 basechar 0
AnchorPoint: "top" 408.562 959 basechar 0
LayerCount: 2
Fore
SplineSet
32 263 m 0
 32 478 115 703 184 703 c 0
 193 703 199 698 199 689 c 0
 199 682 195 673 186 661 c 0
 142 602 107 447 107 308 c 0
 107 173 140 54 229 53 c 0
 230 53 231 53 232 53 c 0
 309 53 352 93 369 110 c 0
 545 287 587 787 587 794 c 0
 589 823 628 853 649 853 c 0
 656 853 661 849 661 840 c 0
 661 839 661 839 661 838 c 0
 661 833 651 669 651 490 c 0
 651 293 663 51 725 51 c 0
 734 51 743 55 751 59 c 0
 751 60 l 0
 751 85 789 121 811 121 c 0
 827 121 827 102 827 100 c 0
 827 57 754 -23 671 -23 c 0
 638 -23 581 -1 577 402 c 1
 458 26 271 -21 185 -21 c 0
 47 -21 32 178 32 263 c 0
EndSplineSet
Validated: 1
EndChar

StartChar: V
Encoding: 86 86 55
Width: 689
VWidth: 1748
Flags: W
HStem: -21 74<163.518 311.69> 833 20G<636 652.5>
VStem: 33 74<115.469 520.931> 588 74<596.086 844.351>
LayerCount: 2
Fore
SplineSet
33 263 m 0
 33 491 118 703 185 703 c 0
 203 703 203 683 186 661 c 0
 112 562 107 314 107 310 c 0
 107 173 142 54 229 53 c 0
 230 53 231 53 232 53 c 0
 309 53 352 93 369 110 c 0
 545 287 587 787 588 794 c 0
 590 819 624 853 648 853 c 0
 657 853 662 848 662 838 c 0
 639 535 509 -21 187 -21 c 0
 55 -21 33 149 33 263 c 0
EndSplineSet
Validated: 1
EndChar

StartChar: W
Encoding: 87 87 56
Width: 1279
VWidth: 1748
Flags: W
HStem: -30 73<160.616 268.171 859.902 1045.31> 217 74<457.696 599.588> 779 74<806.836 1019.84>
VStem: 33 74<106.066 512.358> 1164 74<205.476 590.394>
LayerCount: 2
Fore
SplineSet
185 694 m 0
 189 694 199 693 199 681 c 0
 199 658 176 652 149 572 c 0
 123 494 107 394 107 301 c 0
 107 194 126 50 230 43 c 1
 291 45 401 291 564 291 c 0
 698 291 805 43 962 43 c 0
 1152 43 1164 308 1164 376 c 0
 1164 574 1077 779 914 779 c 0
 801 779 709 711 693 662 c 0
 685 638 655 612 634 612 c 0
 626 612 621 616 621 625 c 0
 621 675 757 853 961 853 c 0
 1144 853 1238 637 1238 424 c 0
 1238 147 1087 -30 916 -30 c 0
 741 -30 635 217 515 217 c 0
 399 217 311 -30 182 -30 c 0
 138 -30 33 -3 33 254 c 0
 33 482 118 694 185 694 c 0
EndSplineSet
Validated: 1
EndChar

StartChar: X
Encoding: 88 88 57
Width: 904
Flags: W
HStem: -22 74<567.29 824.432> 832 20G<80.5 94 674 690>
VStem: 31 72<764.863 842.068>
LayerCount: 2
Fore
SplineSet
31 792 m 0
 31 816 70 852 91 852 c 0
 97 852 101 849 103 844 c 0
 161 708 231 544 311 400 c 1
 627 846 662 853 686 853 c 0
 694 853 698 848 698 841 c 0
 698 825 698 825 659 786 c 0
 596 723 386 427 336 357 c 1
 446 172 563 52 683 52 c 0
 848 52 825 89 857 89 c 0
 866 89 871 84 871 75 c 0
 871 72 867 -22 637 -22 c 4
 547 -21 382 104 278 274 c 1
 189 146 116 38 98 9 c 0
 85 -12 59 -34 41 -34 c 0
 34 -34 29 -30 29 -22 c 0
 29 -2 166 193 253 317 c 1
 143 509 31 787 31 792 c 0
EndSplineSet
Validated: 1
EndChar

StartChar: Y
Encoding: 89 89 58
Width: 732
Flags: W
HStem: 833 20G<90.5 105.5>
VStem: 30 82<668.499 837.449>
AnchorPoint: "bottom" 66 -2 basechar 0
AnchorPoint: "top" 393 958 basechar 0
LayerCount: 2
Fore
SplineSet
690 850 m 0
 698 850 702 846 702 839 c 0
 702 823 702 823 662 783 c 0
 571 692 157 97 101 6 c 0
 88 -15 63 -37 45 -37 c 0
 38 -37 32 -33 32 -25 c 0
 32 0 286 357 338 430 c 1
 55 448 30 693 30 780 c 0
 30 804 78 853 103 853 c 0
 108 853 112 851 112 845 c 0
 122 615 237 525 398 513 c 1
 618 817 663 850 690 850 c 0
EndSplineSet
Validated: 1
EndChar

StartChar: Z
Encoding: 90 90 59
Width: 820
Flags: W
HStem: 7 73<496.988 728.083> 7 44<31.5079 44> 113 73<186.48 374.528> 675 85<35.8438 317.311> 833 20G<585 661>
LayerCount: 2
Fore
SplineSet
45 7 m 0x78
 36 7 30 12 30 21 c 0
 30 29 35 39 44 51 c 2x78
 44 51 187 233 329 420 c 0
 440 566 551 718 588 778 c 1
 452 767 231 675 103 675 c 0
 100 675 30 675 30 700 c 0
 30 722 65 760 89 760 c 0
 100 760 106 748 149 748 c 0
 271 748 515 851 655 853 c 0
 667 853 671 847 671 838 c 0
 671 814 660 770 185 156 c 1
 229 178 267 186 302 186 c 0
 426 186 506 80 613 80 c 0
 655 80 698 84 724 95 c 1
 738 114 759 128 773 128 c 0
 785 128 786 118 786 114 c 0
 786 112 779 7 567 7 c 0xb8
 447 7 367 113 257 113 c 0
 145 113 81 7 45 7 c 0x78
EndSplineSet
Validated: 1
EndChar

StartChar: bracketleft
Encoding: 91 91 60
Width: 343
Flags: W
HStem: -32 80<122 302.339> 778 74<123 296.249>
VStem: 48 263<-25.4062 43.987 786.206 847.212> 48 74<44 778>
LayerCount: 2
Fore
SplineSet
311 30 m 0xe0
 311 8 273 -32 250 -32 c 0
 249 -32 240 -26 190 -26 c 0
 141 -26 78 -30 63 -31 c 0
 53 -32 48 -27 48 -18 c 2xe0
 49 791 l 2
 49 815 85 852 109 852 c 2
 292 853 l 2
 301 853 306 847 306 840 c 0
 306 818 271 779 245 779 c 2
 123 778 l 1
 122 44 l 1xd0
 152 46 197 48 235 48 c 0
 298 48 311 44 311 30 c 0xe0
EndSplineSet
Validated: 1
EndChar

StartChar: backslash
Encoding: 92 92 61
Width: 662
Flags: W
HStem: -32 75<541.014 619.855> 834 20G<84 97.5>
VStem: 31 75<783.001 842.095>
LayerCount: 2
Fore
SplineSet
566 -32 m 0
 526 -32 491 -10 454 27 c 0
 345 136 267 296 33 783 c 0
 32 785 31 787 31 790 c 0
 31 814 73 854 95 854 c 0
 100 854 104 852 106 847 c 0
 123 812 140 776 157 741 c 0
 316 408 490 43 617 43 c 0
 625 43 630 38 630 31 c 0
 630 6 590 -32 566 -32 c 0
EndSplineSet
Validated: 1
EndChar

StartChar: bracketright
Encoding: 93 93 62
Width: 346
Flags: W
HStem: -32 75<45.6784 220> 773 80<40.0814 221>
VStem: 37 258<-26.2119 38.2119 777.205 846.562> 220 75<43 777>
LayerCount: 2
Fore
SplineSet
32 792 m 0xd0
 32 814 70 853 93 853 c 0
 94 853 103 847 153 847 c 0
 202 847 265 852 280 853 c 0
 290 854 295 848 295 839 c 2
 295 30 l 2
 295 6 258 -31 234 -31 c 2
 51 -32 l 2
 42 -32 37 -26 37 -18 c 0xe0
 37 6 74 43 98 43 c 2
 220 43 l 1
 221 777 l 1
 191 775 146 773 108 773 c 0
 35 773 32 782 32 792 c 0xd0
EndSplineSet
Validated: 1
EndChar

StartChar: asciicircum
Encoding: 94 94 63
Width: 471
Flags: W
HStem: 594 82<64.2722 128.859> 833 20G<239.5 259>
VStem: 54 361<610 667>
AnchorPoint: "top" 217 640 mark 0
LayerCount: 2
Fore
SplineSet
129 674 m 1
 153 713 175 771 183 795 c 0
 192 822 230 853 249 853 c 0
 269 853 289 759 341 707 c 0
 384 664 415 688 415 667 c 0
 415 645 375 600 346 600 c 0
 282 600 243 655 211 722 c 1
 161 625 109 594 78 594 c 0
 61 594 54 600 54 610 c 0
 54 634 95 676 120 676 c 0
 123 676 126 676 129 674 c 1
EndSplineSet
Validated: 1
EndChar

StartChar: underscore
Encoding: 95 95 64
Width: 691
Flags: W
HStem: -29 86<52.0535 520.912> -18 81<218.193 631.805>
VStem: 44 598<-11.671 45.6597>
LayerCount: 2
Fore
SplineSet
44 -6 m 0xa0
 44 15 83 57 107 57 c 0xa0
 120 57 115 46 213 46 c 0
 323 46 484 63 574 63 c 0
 642 63 642 53 642 46 c 0
 642 25 603 -18 578 -18 c 0x60
 577 -18 565 -13 525 -13 c 0
 439 -13 275 -29 162 -29 c 0
 44 -29 44 -12 44 -6 c 0xa0
EndSplineSet
Validated: 1
EndChar

StartChar: grave
Encoding: 96 96 65
Width: 270
Flags: W
HStem: 634 219<83.4414 154.953>
VStem: 56 157<655.125 732.314> 56 131<716.501 831.613>
AnchorPoint: "top" 137 697 mark 0
LayerCount: 2
Fore
SplineSet
127 634 m 0xc0
 79 634 56 769 56 771 c 0
 56 794 114 853 138 853 c 0
 153 853 155 765 187 733 c 0xa0
 202 718 213 727 213 716 c 0
 213 696 162 634 127 634 c 0xc0
EndSplineSet
Validated: 1
EndChar

StartChar: a
Encoding: 97 97 66
Width: 724
VWidth: 1368
Flags: W
HStem: -22 74<163.501 345.792 537 635.368> 389 74<182.864 359.067 466.819 505.208>
VStem: 32 74<108.766 309.642> 458 125<398.364 457.063>
AnchorPoint: "bottom" 214 0 basechar 0
AnchorPoint: "top" 302 643 basechar 0
LayerCount: 2
Fore
SplineSet
106 227 m 0
 106 145 150 52 266 52 c 0
 341 52 398 88 450 194 c 1
 427 266 380 389 260 389 c 0
 184 389 106 340 106 227 c 0
471 389 m 0
 462 389 458 394 458 402 c 0
 458 439 518 473 555 473 c 0
 565 473 583 467 583 443 c 0
 583 411 566 323 528 237 c 1
 534 218 539 199 544 182 c 0
 569 92 584 53 610 53 c 0
 615 53 620 54 625 56 c 1
 639 93 672 108 685 108 c 0
 693 108 698 104 698 95 c 0
 698 61 631 -22 562 -22 c 0
 512 -22 497 30 469 130 c 1
 375 -3 271 -22 220 -22 c 0
 78 -22 32 85 32 181 c 0
 32 334 175 463 307 463 c 0
 427 463 477 365 496 323 c 1
 511 382 507 392 511 393 c 1
 508 396 508 396 506 398 c 0
 489 394 479 389 471 389 c 0
EndSplineSet
Validated: 1
EndChar

StartChar: b
Encoding: 98 98 67
Width: 599
Flags: W
HStem: -31 74<195.276 419.666> 388 74<168.957 443.974> 833 20G<124 142.5>
VStem: 39 74<128.107 352.981> 76 75<405.761 781 784.141 844.551> 484 74<103.512 348.933>
LayerCount: 2
Fore
SplineSet
281 388 m 0xf4
 141 388 113 333 113 235 c 0
 113 130 212 43 289 43 c 0
 312 43 412 45 451 84 c 0
 473 106 484 152 484 222 c 0
 484 330 467 388 281 388 c 0xf4
151 817 m 0xec
 151 765 145 689 123 392 c 1
 190 453 269 462 328 462 c 0
 532 462 558 393 558 265 c 0
 558 13 373 -31 241 -31 c 0
 196 -31 150 -10 113 24 c 1
 110 0 75 -34 52 -34 c 0
 44 -34 39 -29 39 -20 c 2
 39 187 l 2xf4
 39 242 76 674 76 771 c 2
 76 781 l 1
 77 784 l 1
 75 787 74 790 74 793 c 0
 74 816 113 853 135 853 c 0
 150 853 151 838 151 817 c 0xec
EndSplineSet
Validated: 1
EndChar

StartChar: c
Encoding: 99 99 68
Width: 590
Flags: W
HStem: -30 74<197.757 425.976> 388 75<222.885 474>
VStem: 32 74<131.501 311.717>
AnchorPoint: "top" 305 643 basechar 0
AnchorPoint: "bottom" 274 -1 basechar 0
LayerCount: 2
Fore
SplineSet
539 137 m 0
 548 137 553 131 553 123 c 0
 553 112 545 96 527 80 c 0
 463 23 394 -30 274 -30 c 0
 140 -30 32 64 32 187 c 0
 32 245 50 302 102 354 c 0
 193 445 336 463 541 463 c 0
 549 463 553 457 553 448 c 0
 553 415 494 317 453 317 c 0
 434 317 436 340 456 363 c 0
 465 374 470 382 474 388 c 1
 135 386 106 320 106 238 c 0
 106 126 208 44 322 44 c 0
 473 44 497 137 539 137 c 0
EndSplineSet
Validated: 1
EndChar

StartChar: d
Encoding: 100 100 69
Width: 600
Flags: W
HStem: -31 74<187.744 422.048> 388 73<255.075 479> 833 20G<528 544>
VStem: 32 74<127.546 299.662> 479 74<95.5194 388 461 843.686>
LayerCount: 2
Fore
SplineSet
32 186 m 0
 32 237 52 290 100 338 c 0
 141 379 233 451 479 461 c 1
 479 792 l 2
 479 816 516 853 540 853 c 0
 548 853 553 849 553 840 c 2
 553 235 l 2
 553 200 550 118 481 49 c 0
 403 -29 302 -31 241 -31 c 0
 121 -31 32 81 32 186 c 0
281 43 m 0
 424 43 479 65 479 187 c 2
 479 388 l 1
 277 386 168 344 131 307 c 0
 115 291 106 264 106 235 c 0
 106 130 204 43 281 43 c 0
EndSplineSet
Validated: 1
EndChar

StartChar: e
Encoding: 101 101 70
Width: 603
Flags: W
HStem: -30 74<197.795 427.043> 197 75<203.355 458.322> 388 75<248.134 491.999>
VStem: 32 74<129.824 302.564> 492 75<306.176 440>
AnchorPoint: "bottom" 281 2 basechar 0
AnchorPoint: "top" 316 644 basechar 0
LayerCount: 2
Fore
SplineSet
322 44 m 0
 417 44 457 78 504 117 c 0
 520 130 533 135 541 135 c 0
 550 135 554 129 554 122 c 0
 554 109 542 90 525 76 c 0
 463 24 396 -30 274 -30 c 0
 132 -30 32 73 32 187 c 0
 32 239 52 293 100 341 c 0
 160 401 272 463 537 463 c 0
 546 463 567 463 567 417 c 0
 567 333 486 197 330 197 c 0
 275 197 221 213 174 232 c 0
 169 234 167 239 167 244 c 0
 167 265 198 304 229 304 c 0
 261 304 296 272 380 272 c 0
 471 272 492 322 492 369 c 0
 492 377 491 383 489 388 c 1
 269 388 165 343 132 310 c 0
 116 294 106 267 106 236 c 0
 106 133 202 44 322 44 c 0
EndSplineSet
Validated: 1
EndChar

StartChar: f
Encoding: 102 102 71
Width: 680
Flags: W
HStem: -846 74<12.3439 172.334> -26 73<384 589.859> 833 20G<624 660.5>
VStem: 271 73<42.8515 553.611> 334 73<-555.513 -39.8649>
LayerCount: 2
Fore
SplineSet
454 -26 m 0xf0
 432 -26 410 -27 384 -29 c 1
 399 -119 407 -210 407 -297 c 0
 407 -709 200 -846 18 -846 c 0
 9 -846 4 -840 4 -832 c 0
 4 -808 40 -772 64 -772 c 0
 145 -772 199 -745 231 -713 c 0
 322 -622 334 -435 334 -343 c 0xe8
 334 -253 324 -150 303 -37 c 1
 157 -57 86 -87 59 -87 c 0
 50 -87 46 -83 46 -74 c 0
 46 -55 72 -23 98 -16 c 0
 170 4 235 18 292 28 c 1
 280 103 271 190 271 280 c 0
 271 826 592 853 656 853 c 0
 665 853 670 847 670 839 c 0
 670 829 663 814 649 800 c 0
 606 757 531 801 453 723 c 0
 354 624 344 410 344 325 c 0
 344 234 354 135 372 39 c 1
 421 45 463 47 500 47 c 0
 595 47 596 40 596 30 c 0
 596 5 559 -30 536 -30 c 0
 532 -30 502 -26 454 -26 c 0xf0
EndSplineSet
Validated: 1
EndChar

StartChar: g
Encoding: 103 103 72
Width: 618
Flags: W
HStem: -846 73<199.959 356.176> -194 82<183.512 379.695> -30 73<179.918 367.246> 389 73<158.019 335.433 460.481 555>
VStem: 32 74<-648.865 -302.18 119.763 331.223> 482 73<-544.961 96.0796> 506 74<298.615 391>
LayerCount: 2
Fore
SplineSet
387 -132 m 0xfc
 387 -153 352 -194 327 -194 c 0
 326 -194 294 -186 266 -186 c 0
 234 -186 200 -193 175 -218 c 0
 108 -285 106 -434 106 -452 c 0
 106 -610 171 -773 282 -773 c 0
 331 -773 357 -755 373 -739 c 0
 473 -639 482 -340 482 -240 c 0xfc
 482 -214 482 -215 481 -17 c 2
 481 -16 l 2
 481 18 477 57 469 98 c 1
 385 -13 288 -30 236 -30 c 0
 94 -30 34 93 34 188 c 0
 34 352 148 462 282 462 c 0
 392 462 459 372 495 296 c 1
 503 334 506 367 506 385 c 0
 506 387 506 389 506 391 c 2
 507 394 l 1
 502 398 498 399 497 399 c 0
 496 399 447 362 447 396 c 0
 447 427 506 473 545 473 c 0
 565 473 580 462 580 430 c 0xfa
 580 385 566 292 529 205 c 1
 552 124 555 112 555 -189 c 0
 555 -382 535 -530 488 -642 c 0
 427 -786 327 -846 236 -846 c 0
 103 -846 32 -673 32 -500 c 0
 32 -255 169 -112 311 -112 c 0
 337 -112 387 -114 387 -132 c 0xfc
108 234 m 0
 108 158 157 43 282 43 c 0
 358 43 410 78 452 164 c 1
 410 298 333 389 236 389 c 0
 181 389 108 375 108 234 c 0
EndSplineSet
Validated: 1
EndChar

StartChar: h
Encoding: 104 104 73
Width: 601
Flags: W
HStem: -31 21G<488.5 519> 388 74<275.607 403.231> 833 20G<95 111>
VStem: 46 74<186 843.686> 461 106<-26.6419 42.9473>
LayerCount: 2
Fore
SplineSet
107 853 m 0
 115 853 120 849 120 840 c 2
 120 186 l 1
 193 380 284 462 385 462 c 0
 572 462 513 85 555 43 c 1
 567 42 567 33 567 30 c 0
 567 8 532 -31 506 -31 c 0
 471 -31 468 18 461 110 c 0
 452 226 440 388 338 388 c 0
 297 388 278 369 271 362 c 0
 205 296 160 109 116 12 c 0
 106 -11 78 -34 59 -34 c 0
 51 -34 46 -30 46 -21 c 2
 46 792 l 2
 46 816 83 853 107 853 c 0
EndSplineSet
Validated: 1
EndChar

StartChar: j
Encoding: 106 106 75
Width: 580
VWidth: 1013
Flags: W
HStem: -849 74<195.177 351.873> -196 82<178.368 374.656> 548 125<121.386 212.908>
VStem: 27 74<-651.178 -302.376> 107 120<560.497 660.503> 477 73<-547.785 192.296>
LayerCount: 2
Fore
SplineSet
107 589 m 0
 107 624 150 673 187 673 c 0
 208 673 227 657 227 632 c 0
 227 597 185 548 148 548 c 0
 126 548 107 564 107 589 c 0
382 -135 m 0
 382 -157 347 -196 322 -196 c 0
 316 -196 294 -188 261 -188 c 0
 228 -188 194 -196 170 -221 c 0
 103 -288 101 -437 101 -454 c 0
 101 -613 167 -775 277 -775 c 0
 326 -775 352 -758 368 -742 c 0
 468 -641 477 -343 477 -242 c 0
 477 -217 477 -217 476 -19 c 0
 476 133 444 240 311 390 c 0
 308 393 307 396 307 400 c 0
 307 423 344 460 367 460 c 0
 371 460 375 459 378 456 c 0
 514 303 550 187 550 27 c 0
 550 -116 550 -189 550 -191 c 0
 550 -384 530 -533 483 -645 c 0
 423 -789 322 -849 231 -849 c 0
 98 -849 27 -675 27 -502 c 0
 27 -257 164 -114 306 -114 c 0
 314 -114 382 -115 382 -135 c 0
EndSplineSet
Validated: 1
EndChar

StartChar: k
Encoding: 107 107 76
Width: 598
Flags: W
HStem: -31 74<434.086 557.249> 442 20G<410 423> 833 20G<95 111>
VStem: 46 74<95 843.686> 274 74<129.059 294.072>
LayerCount: 2
Fore
SplineSet
429 450 m 0
 429 420 348 350 348 238 c 0
 348 120 448 43 554 43 c 0
 563 43 567 37 567 30 c 0
 567 8 532 -31 506 -31 c 0
 384 -31 274 53 274 190 c 0
 274 202 274 216 276 229 c 1
 108 2 l 2
 93 -18 72 -31 59 -31 c 0
 51 -31 46 -26 46 -17 c 2
 46 792 l 2
 46 816 83 853 107 853 c 0
 115 853 120 849 120 840 c 2
 120 95 l 1
 368 430 l 2
 382 449 403 462 417 462 c 0
 429 462 429 453 429 450 c 0
EndSplineSet
Validated: 1
EndChar

StartChar: l
Encoding: 108 108 77
Width: 293
Flags: W
HStem: -33 76<122.187 196.407> 833 20G<227 240.5>
VStem: 36 76<44.9218 470.136>
LayerCount: 2
Fore
SplineSet
112 203 m 0
 112 101 127 51 137 43 c 1
 201 44 220 91 249 91 c 0
 257 91 262 86 262 78 c 0
 262 42 167 -33 83 -33 c 0
 43 -33 36 79 36 152 c 0
 36 307 69 548 176 802 c 0
 186 826 217 853 237 853 c 0
 244 853 249 849 249 841 c 0
 249 832 112 534 112 203 c 0
EndSplineSet
Validated: 1
EndChar

StartChar: m
Encoding: 109 109 78
Width: 1030
Flags: W
HStem: -28 165<42.4424 105.996> 389 74<667.993 799.606>
LayerCount: 2
Fore
SplineSet
776 463 m 0
 961 463 937 92 981 48 c 0
 984 45 987 48 992 43 c 0
 995 40 996 37 996 33 c 0
 996 11 961 -28 935 -28 c 0
 851 -28 899 389 728 389 c 0
 689 389 672 372 667 367 c 0
 578 278 556 -33 462 -33 c 0
 456 -33 450 -31 445 -26 c 0
 406 13 314 322 247 362 c 1
 213 278 202 103 174 37 c 0
 155 -8 117 -28 99 -28 c 0
 33 -28 32 66 32 76 c 0
 32 100 69 137 93 137 c 0
 101 137 106 133 106 124 c 1
 106 124 107 90 119 67 c 1
 163 308 163 308 185 355 c 0
 226 439 284 440 285 440 c 0
 341 440 391 322 451 173 c 0
 465 139 477 108 488 84 c 1
 542 258 611 463 776 463 c 0
EndSplineSet
Validated: 1
EndChar

StartChar: n
Encoding: 110 110 79
Width: 661
Flags: W
HStem: -30 165<42.4424 105.996>
VStem: 32 596<31 74>
AnchorPoint: "bottom" 565 1 basechar 0
AnchorPoint: "top" 355 645 basechar 0
LayerCount: 2
Fore
SplineSet
560 -33 m 0
 547 -33 538 -25 535 -22 c 0
 478 35 410 372 327 388 c 1
 252 287 201 -30 99 -30 c 0
 33 -30 32 64 32 74 c 0
 32 98 69 135 93 135 c 0
 101 135 106 131 106 122 c 2
 106 122 107 73 128 52 c 1
 139 76 154 119 167 155 c 0
 216 290 278 463 372 463 c 0
 485 463 553 80 606 43 c 1
 610 44 612 44 615 44 c 0
 624 44 628 39 628 31 c 0
 628 5 589 -33 560 -33 c 0
EndSplineSet
Validated: 1
EndChar

StartChar: o
Encoding: 111 111 80
Width: 595
Flags: W
HStem: -31 74<190.478 413.231> 389 74<165.21 438.974>
VStem: 34 74<127.714 335.528> 479 74<103.925 349.695>
AnchorPoint: "bottom" 290 -1 basechar 0
AnchorPoint: "top" 309 645 basechar 0
LayerCount: 2
Fore
SplineSet
553 266 m 0
 553 14 368 -31 236 -31 c 0
 140 -31 34 65 34 188 c 0
 34 227 37 312 109 384 c 0
 177 452 261 463 323 463 c 0
 527 463 553 394 553 266 c 0
276 389 m 0
 136 389 108 333 108 235 c 0
 108 130 206 43 283 43 c 0
 306 43 407 45 446 84 c 0
 468 106 479 152 479 222 c 0
 479 330 462 389 276 389 c 0
EndSplineSet
Validated: 1
EndChar

StartChar: p
Encoding: 112 112 81
Width: 596
Flags: W
HStem: -31 74<192.399 415.231> 389 74<166.989 440.974>
VStem: 36 74<126.496 335.325> 71 74<-786.562 -167.355> 481 74<103.925 349.695>
LayerCount: 2
Fore
SplineSet
110 232 m 1xe8
 112 128 209 43 285 43 c 0
 308 43 409 45 448 84 c 0
 470 106 481 152 481 222 c 0
 481 330 464 389 278 389 c 0
 137 389 110 332 110 236 c 2
 110 232 l 1xe8
555 266 m 0
 555 14 370 -31 238 -31 c 0
 197 -31 154 -13 119 16 c 1
 145 -432 145 -438 145 -552 c 0
 145 -659 138 -732 121 -775 c 0
 103 -820 68 -846 49 -846 c 0
 30 -846 32 -821 52 -798 c 1
 65 -764 71 -692 71 -600 c 0xd8
 71 -354 36 31 36 188 c 0
 36 228 39 312 111 384 c 0
 179 452 263 463 325 463 c 0
 529 463 555 394 555 266 c 0
EndSplineSet
Validated: 1
EndChar

StartChar: q
Encoding: 113 113 82
Width: 616
Flags: W
HStem: -846 21G<489 505> -30 73<177.918 365.246> 389 73<156.019 333.433 458.481 553>
VStem: 32 74<117.906 335.738> 480 74<-836.918 96.0796> 504 74<298.615 391>
LayerCount: 2
Fore
SplineSet
280 462 m 0xf8
 390 462 457 372 493 296 c 1
 501 334 504 367 504 385 c 0
 504 387 504 389 504 391 c 2
 505 394 l 1
 500 398 496 399 495 399 c 0
 494 399 445 362 445 396 c 0
 445 427 504 473 543 473 c 0
 563 473 578 462 578 430 c 0xf4
 578 385 564 292 527 205 c 1
 544 144 553 82 553 30 c 0
 553 -189 554 -378 554 -547 c 0
 554 -631 554 -711 553 -786 c 0
 553 -810 517 -846 493 -846 c 0
 485 -846 479 -841 479 -832 c 0
 479 -829 480 -777 480 -542 c 0
 480 -302 479 -21 479 -16 c 0
 479 18 475 57 467 98 c 1
 383 -13 286 -30 234 -30 c 0
 92 -30 32 93 32 188 c 0
 32 352 146 462 280 462 c 0xf8
106 234 m 0
 106 158 155 43 280 43 c 0
 356 43 408 78 450 164 c 1
 408 298 331 389 234 389 c 0
 179 389 106 375 106 234 c 0
EndSplineSet
Validated: 1
EndChar

StartChar: r
Encoding: 114 114 83
Width: 585
Flags: W
HStem: -30 165<42.4424 105.996> 320 74<433.69 536.072> 388 75<276.273 382.522>
VStem: 32 521
LayerCount: 2
Fore
SplineSet
462 320 m 0xd0
 407 320 368 380 290 388 c 1
 229 258 202 -30 99 -30 c 0
 33 -30 32 64 32 74 c 0
 32 98 69 135 93 135 c 0
 101 135 106 131 106 122 c 1
 106 122 107 78 125 56 c 1
 135 86 147 129 159 173 c 0
 198 315 220 389 264 433 c 0
 292 461 316 463 322 463 c 0xb0
 418 463 469 394 509 394 c 0
 511 394 512 395 514 395 c 0
 535 409 553 407 553 391 c 0
 553 363 507 320 462 320 c 0xd0
EndSplineSet
Validated: 1
EndChar

StartChar: s
Encoding: 115 115 84
Width: 596
Flags: W
HStem: -30 74<163.31 439.127> 388 75<203.668 474>
VStem: 32 75<94.7554 160.203> 78 75<235.5 353.11> 479 75<68.8785 160.449>
LayerCount: 2
Fore
SplineSet
322 44 m 0xe8
 382 44 443 62 479 85 c 1
 479 90 l 2
 479 116 478 132 462 148 c 0
 389 221 78 183 78 288 c 0
 78 329 108 363 121 376 c 0
 179 434 276 463 541 463 c 0
 550 463 553 457 553 448 c 0
 553 415 494 317 453 317 c 0
 435 317 436 340 456 363 c 0
 465 374 471 382 474 388 c 1
 367 387 210 381 154 346 c 1
 153 343 153 341 153 339 c 0xd8
 153 267 454 291 530 215 c 0
 551 194 554 175 554 122 c 0
 554 60 424 -30 274 -30 c 0
 142 -30 32 18 32 107 c 0
 32 131 69 169 93 169 c 0
 101 169 107 165 107 156 c 0
 107 91 201 44 322 44 c 0xe8
EndSplineSet
Validated: 1
EndChar

StartChar: t
Encoding: 116 116 85
Width: 576
Flags: W
HStem: -32 76<174.606 344.263> 344 123<39.5089 112.969 306.02 432.073> 344 77<196 418.153> 553 20G<214.5 228.5>
VStem: 78 76<60.3576 343.358>
LayerCount: 2
Fore
SplineSet
30 399 m 0xb8
 30 421 72 464 95 464 c 0
 105 464 106 455 138 442 c 1
 148 475 157 502 163 519 c 0
 171 544 204 573 225 573 c 0
 232 573 237 569 237 561 c 0
 237 560 202 449 196 427 c 1
 219 423 245 421 270 421 c 0xb8
 405 421 465 467 485 467 c 0xd8
 490 467 493 463 493 455 c 0
 493 399 363 344 216 344 c 0
 203 344 189 344 176 345 c 1
 162 282 154 226 154 180 c 0
 154 96 180 44 238 44 c 0
 355 44 460 121 466 145 c 0
 473 172 509 202 529 202 c 0
 539 202 541 196 541 190 c 0
 541 126 370 -32 186 -32 c 0
 105 -32 78 37 78 127 c 0
 78 198 94 282 113 355 c 1
 79 363 30 383 30 399 c 0xb8
EndSplineSet
Validated: 1
EndChar

StartChar: u
Encoding: 117 117 86
Width: 661
Flags: W
HStem: -30 74<142.696 336.5 543.869 586.133> 443 20G<533 549.5>
VStem: 37 75<68.4519 405.45> 483 75<179.525 453.754>
AnchorPoint: "bottom" 170 -2 basechar 0
AnchorPoint: "top" 324 643 basechar 0
LayerCount: 2
Fore
SplineSet
558 430 m 0
 558 427 542 245 542 139 c 0
 542 99 544 58 550 44 c 0
 553 44 555 45 557 45 c 0
 568 70 597 91 614 91 c 0
 624 91 628 84 628 76 c 0
 628 38 572 -30 497 -30 c 0
 480 -30 467 -20 467 92 c 0
 467 100 467 108 467 116 c 1
 360 -29 213 -30 154 -30 c 0
 153 -30 153 -30 152 -30 c 0
 50 -30 37 96 37 162 c 0
 37 228 48 311 73 406 c 0
 79 430 112 460 134 460 c 0
 142 460 147 456 147 447 c 0
 147 445 112 316 112 211 c 0
 112 104 145 44 200 44 c 0
 344 44 444 83 475 282 c 1
 479 347 483 399 483 404 c 0
 486 430 522 463 544 463 c 0
 555 463 558 459 558 430 c 0
EndSplineSet
Validated: 1
EndChar

StartChar: v
Encoding: 118 118 87
Width: 596
Flags: W
HStem: -30 74<141.252 334.727> 443 20G<533 549>
VStem: 37 75<68.4519 405.45> 483 75<218.313 453.686>
LayerCount: 2
Fore
SplineSet
483 402 m 0
 483 426 521 463 545 463 c 0
 553 463 558 459 558 450 c 0
 558 331 538 181 431 74 c 0
 327 -30 206 -30 152 -30 c 0
 50 -30 37 96 37 162 c 0
 37 228 48 311 73 406 c 0
 79 430 112 460 134 460 c 0
 142 460 147 456 147 447 c 0
 147 445 112 316 112 211 c 0
 112 104 145 44 200 44 c 0
 313 44 483 53 483 402 c 0
EndSplineSet
Validated: 1
EndChar

StartChar: w
Encoding: 119 119 88
Width: 990
Flags: W
HStem: -37 75<145.919 270.252 639.057 804.916> 443 20G<122 137 918 933.5>
VStem: 37 75<70.2484 408.685> 380 75<287.083 427.686> 874 74<138.331 456.703>
LayerCount: 2
Fore
SplineSet
930 463 m 0
 937 463 942 460 943 452 c 0
 946 417 948 383 948 352 c 0
 948 50 785 -37 695 -37 c 0
 533 -37 443 166 427 204 c 1
 359 -15 194 -30 152 -30 c 0
 49 -30 37 101 37 165 c 0
 37 232 48 314 73 409 c 0
 79 433 111 463 133 463 c 0
 141 463 147 459 147 450 c 0
 147 448 112 321 112 215 c 0
 112 106 145 44 200 44 c 0
 283 44 321 80 348 152 c 0
 367 201 380 274 380 376 c 0
 380 400 418 437 442 437 c 0
 449 437 454 434 455 427 c 0
 495 173 632 38 743 38 c 0
 771 38 796 47 811 62 c 0
 871 122 874 272 874 306 c 0
 874 351 869 398 869 402 c 0
 869 425 906 463 930 463 c 0
EndSplineSet
Validated: 1
EndChar

StartChar: x
Encoding: 120 120 89
Width: 597
Flags: W
HStem: -30 74<41.314 159.281 383.118 518.454> 389 74<41.314 196.085 438.501 555.686>
VStem: 258 76<124.387 302.68>
LayerCount: 2
Fore
SplineSet
466 -30 m 0
 337 -30 276 26 262 101 c 1
 168 -25 64 -30 45 -30 c 0
 36 -30 32 -25 32 -17 c 0
 32 7 69 44 93 44 c 0
 189 44 258 154 258 239 c 0
 258 317 203 389 45 389 c 0
 36 389 32 394 32 402 c 0
 32 426 69 463 93 463 c 0
 243 463 313 403 329 325 c 1
 390 409 476 463 552 463 c 0
 561 463 565 458 565 450 c 0
 565 426 528 389 504 389 c 0
 402 389 334 269 334 184 c 0
 334 110 382 44 515 44 c 0
 524 44 528 39 528 31 c 0
 528 7 490 -30 466 -30 c 0
EndSplineSet
Validated: 1
EndChar

StartChar: y
Encoding: 121 121 90
Width: 616
Flags: W
HStem: -845 73<204.959 361.176> -193 82<188.775 384.695> -29 74<139.842 337.957> 443 20G<534 550>
VStem: 37 74<-647.865 -301.18 71.008 400.842> 486 74<-544.281 139 188.043 454.874>
AnchorPoint: "bottom" 310 -152 basechar 0
AnchorPoint: "top" 312 643 basechar 0
LayerCount: 2
Fore
SplineSet
392 -131 m 0
 392 -152 357 -193 332 -193 c 0
 331 -193 299 -185 270 -185 c 0
 238 -185 204 -192 179 -217 c 0
 112 -284 111 -433 111 -451 c 0
 111 -609 176 -772 287 -772 c 0
 336 -772 362 -754 378 -738 c 0
 478 -638 487 -339 487 -239 c 0
 487 -213 487 -214 486 -16 c 1
 486 139 l 1
 380 -29 215 -29 155 -29 c 0
 48 -29 36 105 36 163 c 0
 36 230 48 313 76 409 c 0
 83 433 114 460 135 460 c 0
 143 460 149 455 149 446 c 0
 149 444 110 315 110 210 c 0
 110 104 145 45 201 45 c 0
 306 45 486 47 486 404 c 0
 486 428 522 463 546 463 c 0
 554 463 560 459 560 450 c 2
 560 -188 l 2
 560 -381 540 -529 493 -641 c 0
 432 -785 332 -845 241 -845 c 0
 108 -845 37 -672 37 -499 c 0
 37 -254 174 -111 316 -111 c 0
 342 -111 392 -113 392 -131 c 0
EndSplineSet
Validated: 1
EndChar

StartChar: z
Encoding: 122 122 91
Width: 597
Flags: W
HStem: -845 74<196.959 353.712> -193 83<180.512 376.36> -29 21G<40.5 107.5> 7 73<211.409 477.978> 389 74<77.3966 454.384>
VStem: 29 74<-647.661 -301.064> 478 74<-544.281 3.21136 231.718 361.317>
LayerCount: 2
Fore
SplineSet
384 -131 m 0
 384 -152 349 -193 324 -193 c 0
 323 -193 291 -185 263 -185 c 0
 231 -185 197 -192 172 -217 c 0
 105 -284 103 -433 103 -451 c 0
 103 -609 168 -771 279 -771 c 0
 328 -771 354 -754 370 -738 c 0
 470 -638 479 -339 479 -239 c 0
 479 -215 478 -154 478 -15 c 0
 474 5 413 7 384 7 c 0
 297 7 166 -11 49 -29 c 0
 48 -29 46 -29 45 -29 c 0
 36 -29 31 -23 31 -15 c 0
 31 5 58 38 84 44 c 0
 478 142 478 266 478 306 c 0
 478 377 375 389 244 389 c 0
 161 389 96 387 95 387 c 0
 67 387 67 390 67 400 c 0
 67 422 101 460 127 460 c 0
 129 460 251 463 292 463 c 0
 440 463 552 448 552 352 c 0
 552 209 407 113 339 76 c 1
 373 79 402 80 428 80 c 0
 470 80 552 78 552 34 c 0
 552 33 552 33 552 32 c 1
 552 -187 l 2
 552 -380 532 -529 485 -641 c 0
 424 -785 324 -845 233 -845 c 0
 100 -845 29 -672 29 -499 c 0
 29 -254 166 -110 308 -110 c 0
 313 -110 384 -110 384 -131 c 0
EndSplineSet
Validated: 1
EndChar

StartChar: braceleft
Encoding: 123 123 92
Width: 257
Flags: W
HStem: -83 74<115.091 205.686> 336 102<65.7642 126.775> 779 74<120.331 205.686>
VStem: 34 74<0.763607 133.812 646.335 776.284> 39 182<-70.3829 -7.76172 336.051 371.313>
LayerCount: 2
Fore
SplineSet
44 705 m 0xe8
 44 785 109 853 199 853 c 0
 205 853 215 853 215 840 c 0
 215 815 178 779 154 779 c 0
 138 779 127 777 120 775 c 1
 118 768 118 761 118 753 c 0
 118 650 221 515 221 484 c 0
 221 447 185 408 154 386 c 1
 205 357 221 331 221 308 c 0xe8
 221 262 108 150 108 58 c 0
 108 18 133 -9 202 -9 c 0
 211 -9 215 -14 215 -22 c 0
 215 -46 178 -83 154 -83 c 0
 61 -83 34 -40 34 10 c 0xf0
 34 95 108 205 147 262 c 1
 144 298 49 336 48 336 c 0
 41 337 39 343 39 349 c 0
 39 367 62 398 90 408 c 0
 125 421 146 438 147 438 c 1
 146 448 44 597 44 705 c 0xe8
EndSplineSet
Validated: 1
EndChar

StartChar: bar
Encoding: 124 124 93
Width: 175
Flags: W
HStem: 833 20G<99 114>
VStem: 48 81<-82.3442 845.517>
LayerCount: 2
Fore
SplineSet
55 46 m 0
 55 214 43 494 43 664 c 0
 43 729 44 778 49 798 c 0
 55 822 88 853 110 853 c 0
 118 853 123 849 123 840 c 0
 123 839 117 828 117 722 c 0
 117 707 129 89 129 83 c 0
 129 -43 122 -51 101 -72 c 0
 87 -86 72 -94 62 -94 c 0
 54 -94 48 -90 48 -81 c 0
 48 -80 55 -25 55 46 c 0
EndSplineSet
Validated: 1
EndChar

StartChar: braceright
Encoding: 125 125 94
Width: 257
Flags: W
HStem: -83 74<49.314 145.574> 779 74<49.3871 127.407>
VStem: 34 74<443.025 516.032> 147 74<-4.55023 121.644 636.789 764.817>
LayerCount: 2
Fore
SplineSet
221 58 m 0
 221 0 174 -83 53 -83 c 0
 44 -83 40 -78 40 -70 c 0
 40 -46 77 -9 101 -9 c 0
 122 -9 137 -6 146 -3 c 1
 147 1 147 5 147 10 c 0
 147 104 34 225 34 261 c 0
 34 308 91 351 101 359 c 1
 51 386 34 412 34 437 c 0
 34 476 137 602 137 706 c 0
 137 768 93 779 55 779 c 2
 53 779 l 2
 44 779 40 784 40 792 c 0
 40 814 73 853 103 853 c 0
 197 853 212 795 212 754 c 0
 212 655 126 513 108 484 c 1
 110 442 217 416 217 397 c 0
 217 378 192 347 166 338 c 0
 158 335 130 323 109 307 c 1
 112 290 221 159 221 58 c 0
EndSplineSet
Validated: 1
EndChar

StartChar: asciitilde
Encoding: 126 126 95
Width: 471
Flags: W
HStem: 705 78<266.921 363.162> 775 78<105.249 206.859>
VStem: 56 357<776.34 782.553>
AnchorPoint: "top" 223 774 mark 0
LayerCount: 2
Fore
SplineSet
413 807 m 0xa0
 413 777 331 705 275 705 c 0xa0
 217 705 185 775 139 775 c 0
 127 775 116 770 104 759 c 0
 80 738 56 733 56 750 c 0
 56 784 141 853 196 853 c 0x60
 258 853 288 783 332 783 c 0
 358 783 383 819 401 819 c 0
 406 819 413 815 413 807 c 0xa0
EndSplineSet
Validated: 1
EndChar

StartChar: exclamdown
Encoding: 161 161 97
Width: 190
Flags: W
HStem: 724 125<47.0915 137.908>
VStem: 33 119<736.665 836.567> 64 75<-40.375 637.598>
LayerCount: 2
Fore
SplineSet
64 175 m 0xa0
 64 345 55 547 55 578 c 0
 55 605 94 642 117 642 c 0
 130 642 130 632 130 628 c 0
 130 624 139 360 139 221 c 0
 139 120 136 42 127 -2 c 0
 122 -27 87 -60 65 -60 c 0
 57 -60 52 -55 52 -47 c 0
 52 -45 64 -8 64 175 c 0xa0
112 849 m 0
 134 849 152 833 152 809 c 0
 152 774 110 724 73 724 c 0
 52 724 33 740 33 765 c 0xc0
 33 800 75 849 112 849 c 0
EndSplineSet
Validated: 1
EndChar

StartChar: cent
Encoding: 162 162 98
Width: 421
Flags: W
HStem: -29 21G<149.5 164.5> 105 118<262.765 310.336> 553 20G<248 262.5>
VStem: 38 76<204.459 358.124>
LayerCount: 2
Fore
SplineSet
384 354 m 0
 384 331 343 290 320 290 c 0
 316 290 313 292 311 294 c 2
 311 294 300 313 285 328 c 0
 256 357 217 372 182 372 c 0
 147 372 130 358 130 358 c 2
 130 357 114 340 114 294 c 0
 114 207 179 175 234 175 c 0
 306 175 304 223 342 223 c 0
 350 223 354 219 354 212 c 0
 354 186 302 125 230 105 c 1
 224 67 216 29 216 29 c 2
 211 4 176 -29 153 -29 c 0
 146 -29 141 -25 141 -17 c 0
 141 -15 142 -14 142 -12 c 2
 142 -12 156 61 161 100 c 1
 44 114 38 221 38 242 c 0
 38 353 121 419 176 438 c 1
 185 477 196 517 196 517 c 2
 203 542 237 573 259 573 c 0
 266 573 271 569 271 561 c 0
 271 559 271 557 270 554 c 2
 270 554 253 489 244 447 c 1
 340 441 384 364 384 354 c 0
EndSplineSet
Validated: 1
EndChar

StartChar: sterling
Encoding: 163 163 99
Width: 565
Flags: W
HStem: -27 74<60 151.183> 232 87<123.574 215> 241 81<305 434.499> 389 75<376 450.994> 409 109<205.858 284.955> 498 75<377.311 475.5>
VStem: 36 75<5.04497 127.002>
LayerCount: 2
Fore
SplineSet
443 303 m 0xb6
 443 282 406 241 381 241 c 0xb6
 373 241 368 247 338 247 c 0
 320 247 300 244 278 240 c 1
 267 211 257 183 245 156 c 1
 271 127 295 90 318 67 c 0
 342 43 354 49 359 44 c 0
 361 42 362 39 362 35 c 0
 362 13 327 -28 299 -28 c 0
 271 -28 243 6 197 64 c 1
 155 -1 107 -27 76 -27 c 0
 44 -27 36 4 36 37 c 0
 36 129 107 203 165 203 c 0
 178 203 190 199 200 194 c 1
 205 207 210 220 215 233 c 1
 210 233 204 232 199 232 c 0
 198 232 116 232 116 255 c 0
 116 277 154 319 178 319 c 0
 185 319 209 307 243 307 c 1
 256 342 270 377 285 409 c 1
 246 423 206 444 204 446 c 0
 202 448 200 452 200 456 c 0
 200 478 240 518 263 518 c 0xca
 273 518 277 509 330 488 c 1
 363 535 409 573 457 573 c 0
 494 573 528 549 528 510 c 0
 528 465 475 389 381 389 c 0
 366 389 351 391 337 394 c 1
 326 369 316 341 305 312 c 1
 342 318 368 322 390 322 c 0
 403 322 443 320 443 303 c 0xb6
124 47 m 0
 136 47 155 88 162 103 c 1
 146 118 130 127 118 128 c 1
 113 115 111 100 111 87 c 0
 111 67 117 47 124 47 c 0
376 472 m 1
 396 467 413 464 429 464 c 0
 437 464 445 466 452 467 c 1
 447 490 423 498 406 498 c 0
 396 498 392 498 376 472 c 1
EndSplineSet
Validated: 1
EndChar

StartChar: currency
Encoding: 164 164 100
Width: 540
Flags: W
HStem: 142 74<209.762 350.111> 411 75<191.302 337.975> 553 20G<479.5 492>
VStem: 100 75<249.298 403.172> 368 75<232.692 381.078>
LayerCount: 2
Fore
SplineSet
342 172 m 1
 304 148 267 142 240 142 c 0
 207 142 180 152 159 168 c 1
 105 121 89 61 49 61 c 0
 41 61 35 65 35 74 c 0
 35 98 93 167 129 200 c 1
 111 226 100 261 100 297 c 0
 100 331 110 367 133 400 c 1
 98 437 64 498 64 498 c 2
 63 500 62 503 62 506 c 0
 62 529 102 568 124 568 c 0
 128 568 132 566 134 564 c 0
 135 563 171 497 204 464 c 1
 232 479 263 486 292 486 c 0
 327 486 359 477 382 462 c 1
 409 493 436 535 436 535 c 1
 448 554 471 573 488 573 c 0
 496 573 502 569 502 560 c 0
 502 533 416 432 415 431 c 0
 434 406 443 377 443 345 c 0
 443 310 431 273 410 240 c 1
 456 189 484 139 484 139 c 2
 485 137 486 135 486 132 c 0
 486 109 446 70 424 70 c 0
 408 70 402 106 342 172 c 1
175 346 m 0
 175 285 215 216 290 216 c 0
 356 216 368 257 368 294 c 0
 368 360 322 411 245 411 c 0
 186 411 175 393 175 346 c 0
EndSplineSet
Validated: 1
EndChar

StartChar: yen
Encoding: 165 165 101
Width: 521
Flags: W
HStem: 49 99<109.736 218.597 300.162 412.625> 185 99<109.736 217.75 298.254 412.625> 206 74<152.618 220> 553 20G<451 475>
VStem: 221 76<-17.9754 69 148 205 284 324.781>
LayerCount: 2
Fore
SplineSet
34 509 m 0xb8
 34 533 76 570 97 570 c 0
 102 570 106 567 108 562 c 0
 124 516 250 395 268 378 c 1
 297 408 331 433 364 466 c 0
 419 521 431 573 471 573 c 0
 479 573 484 568 484 560 c 0
 484 506 298 346 297 345 c 0
 296 341 295 317 295 284 c 1
 300 284 305 284 310 284 c 0
 420 284 420 260 420 251 c 0
 420 224 377 185 355 185 c 0xd8
 335 185 366 200 295 205 c 1
 295 186 296 167 296 148 c 1
 310 148 l 2
 420 148 420 124 420 115 c 0
 420 88 377 49 355 49 c 0
 335 49 366 64 297 69 c 1
 297 35 l 2
 297 11 260 -27 235 -27 c 0
 222 -27 222 -27 221 70 c 1
 173 68 124 62 109 58 c 0
 97 55 92 61 92 69 c 0
 92 89 125 127 152 134 c 0
 165 137 190 141 220 144 c 1
 220 206 l 1
 172 204 124 198 109 194 c 0
 97 191 92 197 92 205 c 0
 92 225 125 263 152 270 c 0
 165 273 190 277 221 280 c 0
 221 284 222 286 222 289 c 0
 203 307 34 465 34 509 c 0xb8
EndSplineSet
Validated: 1
EndChar

StartChar: brokenbar
Encoding: 166 166 102
Width: 173
Flags: W
HStem: 833 20G<98 113>
VStem: 53 74<-10.0617 291.387 494.938 796.387>
LayerCount: 2
Fore
SplineSet
53 540 m 0
 53 602 44 685 44 745 c 0
 44 766 45 784 48 797 c 0
 53 821 87 853 109 853 c 0
 117 853 122 849 122 840 c 0
 122 838 121 836 121 834 c 0
 119 826 119 812 119 796 c 0
 119 739 127 644 127 587 c 0
 127 535 120 514 100 494 c 0
 86 480 70 473 60 473 c 0
 52 473 47 478 47 486 c 0
 47 491 53 501 53 540 c 0
53 35 m 0
 53 97 44 180 44 240 c 0
 44 261 45 279 48 292 c 0
 53 316 87 348 109 348 c 0
 117 348 122 344 122 335 c 0
 122 333 121 331 121 329 c 0
 119 321 119 307 119 291 c 0
 119 234 127 139 127 82 c 0
 127 30 120 9 100 -11 c 0
 86 -25 70 -32 60 -32 c 0
 52 -32 47 -27 47 -19 c 0
 47 -14 53 -4 53 35 c 0
EndSplineSet
Validated: 1
EndChar

StartChar: section
Encoding: 167 167 103
Width: 384
Flags: W
HStem: -31 21G<46 82.5> 276 74<148.919 263.289> 472 74<118.543 234.797> 833 20G<298 337>
VStem: 34 75<389.883 471.999> 275 74<353.121 431.639>
LayerCount: 2
Fore
SplineSet
275 352 m 1
 273 421 211 472 135 472 c 0
 126 472 118 471 109 470 c 1
 111 401 172 350 248 350 c 0
 257 350 266 351 275 352 c 1
39 -18 m 0
 39 1 66 34 92 42 c 1
 124 62 230 173 264 285 c 1
 242 279 221 276 200 276 c 0
 105 276 34 338 34 425 c 0
 34 610 265 853 331 853 c 0
 343 853 344 844 344 840 c 0
 344 820 316 787 290 780 c 1
 263 767 152 655 118 537 c 1
 141 543 163 546 184 546 c 0
 279 546 349 484 349 397 c 0
 349 214 113 -31 52 -31 c 0
 40 -31 39 -21 39 -18 c 0
EndSplineSet
Validated: 1
EndChar

StartChar: dieresis
Encoding: 168 168 104
Width: 391
Flags: W
HStem: 728 125<72.3861 163.614 227.959 319.875>
VStem: 58 120<740.894 840.425> 212 120<737.665 837.789>
AnchorPoint: "top" 191 766 mark 0
LayerCount: 2
Fore
SplineSet
212 766 m 0
 212 801 255 851 292 851 c 0
 313 851 332 835 332 810 c 0
 332 775 290 725 253 725 c 0
 231 725 212 741 212 766 c 0
138 853 m 0
 161 853 178 835 178 812 c 0
 178 777 135 728 98 728 c 0
 75 728 58 745 58 769 c 0
 58 805 101 853 138 853 c 0
EndSplineSet
Validated: 1
EndChar

StartChar: copyright
Encoding: 169 169 105
Width: 590
Flags: W
HStem: -35 58<199.096 397.82> 75 59<262.284 378.975> 288 60<221.427 319.722> 405 58<197.179 389.48>
VStem: 41 58<123.735 306.553> 158 60<177.189 285.688> 488 58<113.574 304.859>
LayerCount: 2
Fore
SplineSet
421 268 m 0
 421 251 388 216 370 216 c 0
 361 216 312 288 242 288 c 0
 235 288 229 287 223 285 c 1
 219 273 218 259 218 253 c 0
 218 170 294 134 347 134 c 0
 357 134 366 136 373 138 c 1
 394 161 418 168 418 154 c 0
 418 134 379 75 303 75 c 0
 237 75 158 118 158 210 c 0
 158 292 227 348 286 348 c 0
 359 348 421 277 421 268 c 0
279 -35 m 0
 123 -35 41 73 41 190 c 0
 41 322 148 463 320 463 c 0
 466 463 546 353 546 235 c 0
 546 102 443 -35 279 -35 c 0
488 195 m 0
 488 303 417 405 282 405 c 0
 148 405 99 320 99 231 c 0
 99 132 165 23 317 23 c 0
 471 23 488 142 488 195 c 0
EndSplineSet
Validated: 1
EndChar

StartChar: ordfeminine
Encoding: 170 170 106
Width: 431
Flags: W
HStem: 476 59<50.125 396.448> 564 59<177.899 238.015 322.284 347.637> 796 57<257.492 281.298>
VStem: 71 60<670.445 779.551> 302 60<679.86 784.632>
LayerCount: 2
Fore
SplineSet
310 463 m 0
 258 463 183 476 114 476 c 0
 66 476 52 469 44 469 c 0
 39 469 36 473 36 478 c 0
 36 493 59 521 80 527 c 0
 101 533 128 535 157 535 c 0
 228 535 310 522 355 522 c 0
 366 522 375 523 381 525 c 0
 385 527 387 527 390 527 c 0
 396 527 400 524 400 518 c 0
 400 517 396 463 310 463 c 0
297 679 m 1
 301 692 302 706 302 719 c 0
 302 745 295 769 282 782 c 0
 267 797 254 792 250 796 c 0
 249 797 248 799 248 802 c 0
 248 818 273 853 303 853 c 0
 335 853 362 815 362 762 c 0
 362 724 349 681 322 644 c 1
 328 637 338 626 347 623 c 0
 348 623 l 0
 354 623 357 620 357 615 c 0
 357 599 329 564 305 564 c 0
 291 564 279 576 266 591 c 1
 240 575 214 568 189 568 c 0
 108 568 71 668 71 711 c 0
 71 768 132 840 178 840 c 0
 195 840 195 840 297 679 c 1
239 628 m 1
 147 774 147 774 137 780 c 1
 133 772 131 763 131 752 c 0
 131 701 173 627 233 627 c 0
 235 627 237 628 239 628 c 1
EndSplineSet
Validated: 1
EndChar

StartChar: guillemotleft
Encoding: 171 171 107
Width: 444
Flags: W
HStem: 38 375
VStem: 43 362
LayerCount: 2
Fore
SplineSet
382 360 m 0
 361 339 317 287 287 253 c 1
 350 209 383 173 383 146 c 0
 383 118 339 81 318 81 c 0
 299 81 325 113 203 192 c 0
 193 198 200 217 216 236 c 0
 244 264 353 413 392 413 c 0
 400 413 405 408 405 400 c 0
 405 390 398 376 382 360 c 0
222 318 m 0
 201 297 156 245 126 211 c 1
 189 167 222 131 222 104 c 0
 222 76 178 38 157 38 c 0
 138 38 165 70 43 149 c 0
 33 155 39 175 55 194 c 0
 56 195 144 300 191 347 c 0
 207 363 221 370 231 370 c 0
 239 370 245 365 245 357 c 0
 245 348 238 334 222 318 c 0
EndSplineSet
Validated: 1
EndChar

StartChar: logicalnot
Encoding: 172 172 108
Width: 407
Flags: W
HStem: 332 78<55.7248 279>
VStem: 274 84<200.907 335>
LayerCount: 2
Fore
SplineSet
358 257 m 0
 358 234 314 190 291 190 c 0
 283 190 274 191 274 247 c 0
 274 281 278 320 279 335 c 1
 54 332 l 2
 47 332 43 335 43 342 c 0
 43 366 86 410 110 410 c 2
 347 413 l 2
 358 413 358 404 358 400 c 2
 358 400 353 349 353 310 c 0
 353 260 358 265 358 257 c 0
EndSplineSet
Validated: 1
EndChar

StartChar: registered
Encoding: 174 174 110
Width: 590
Flags: W
HStem: -35 58<199.096 397.82> 79 59<344.131 393.226> 405 58<197.179 389.48>
VStem: 41 58<123.735 306.553> 182 68<88.7162 142.098> 200 202<219.883 347.215> 200 58<244 300> 488 58<113.574 304.859>
LayerCount: 2
Fore
SplineSet
488 195 m 0xf1
 488 303 417 405 282 405 c 0
 148 405 99 320 99 231 c 0
 99 132 165 23 317 23 c 0
 471 23 488 142 488 195 c 0xf1
279 -35 m 0
 123 -35 41 73 41 190 c 0
 41 322 148 463 320 463 c 0
 466 463 546 353 546 235 c 0
 546 102 443 -35 279 -35 c 0
277 361 m 0
 328 361 400 348 400 290 c 0
 400 262 375 216 308 197 c 1
 324 183 371 142 390 138 c 0
 391 138 392 138 393 138 c 0
 399 138 402 135 402 130 c 0xf5
 402 114 376 79 352 79 c 0
 332 79 305 97 250 145 c 1
 239 93 201 77 191 77 c 0
 185 77 182 80 182 86 c 0xf9
 182 107 200 77 200 238 c 0xf5
 200 277 199 307 199 308 c 0
 199 311 201 361 277 361 c 0
341 255 m 1
 335 287 294 297 259 300 c 1
 259 283 258 264 258 244 c 1xf3
 288 244 321 249 341 255 c 1
EndSplineSet
Validated: 1
EndChar

StartChar: macron
Encoding: 175 175 111
Width: 413
Flags: W
HStem: 791 60<69.767 101.484 289.936 345.033>
VStem: 60 295<793.054 847.641>
AnchorPoint: "top" 206 821 mark 0
LayerCount: 2
Fore
SplineSet
110 851 m 0
 121 852 133 853 146 853 c 0
 189 853 241 848 289 848 c 0
 309 848 327 849 344 851 c 0
 354 853 355 845 355 843 c 0
 355 827 327 794 306 791 c 0
 287 788 265 788 244 788 c 0
 194 788 142 793 102 793 c 0
 91 793 80 792 71 791 c 0
 61 790 60 798 60 800 c 0
 60 816 90 848 110 851 c 0
EndSplineSet
Validated: 1
EndChar

StartChar: degree
Encoding: 176 176 112
Width: 340
Flags: W
HStem: 629 81<105.5 198.966> 772 81<138.477 197.608>
VStem: 56 81<711.476 771.209> 200 81<710.981 800>
AnchorPoint: "top" 141 678 mark 0
LayerCount: 2
Fore
SplineSet
200 718 m 0
 198 769 144 772 138 772 c 1
 138 769 137 767 137 764 c 0
 137 736 156 710 191 710 c 0
 201 710 200 710 200 718 c 0
129 629 m 0
 82 629 56 661 56 702 c 0
 56 772 132 853 197 853 c 0
 249 853 281 822 281 778 c 0
 281 714 205 629 129 629 c 0
EndSplineSet
Validated: 1
EndChar

StartChar: plusminus
Encoding: 177 177 113
Width: 414
Flags: W
HStem: 45 77<64.2295 166 242 303.235> 182 99<249.3 364.625> 191 76<54.8828 168>
VStem: 169 79<122.618 202 281 400.899>
LayerCount: 2
Fore
SplineSet
204 45 m 0xd0
 119 45 74 33 54 33 c 0
 45 33 41 35 41 43 c 0
 41 63 74 101 101 108 c 0
 114 111 137 114 166 117 c 1
 167 144 167 165 168 203 c 1
 121 201 76 195 61 191 c 0
 49 188 43 194 43 202 c 0
 43 222 76 260 103 267 c 0xb0
 116 270 140 273 169 276 c 1
 169 330 l 2
 169 400 236 413 237 413 c 0
 248 413 248 409 248 386 c 0
 248 359 247 321 247 281 c 1
 252 281 257 281 262 281 c 0
 372 281 372 257 372 248 c 0
 372 221 329 182 307 182 c 0
 287 182 318 197 246 202 c 1
 245 160 244 135 242 122 c 1
 259 122 l 2
 369 122 370 99 370 89 c 0
 370 62 326 23 304 23 c 0
 287 23 315 45 204 45 c 0xd0
EndSplineSet
Validated: 1
EndChar

StartChar: uni00B2
Encoding: 178 178 114
Width: 339
Flags: W
HStem: 542 75<139 179.354 182.901 291.04> 558 59<108.042 270.646> 795 58<123.813 211.948>
VStem: 214 59<731.098 811.5>
LayerCount: 2
Fore
SplineSet
249 542 m 0xb0
 235 542 222 558 181 558 c 0x70
 146 558 104 547 62 535 c 0
 40 529 41 553 63 575 c 0
 65 577 214 727 214 755 c 0
 214 779 190 795 157 795 c 0
 147 795 138 793 130 790 c 1
 111 770 86 763 86 779 c 0
 86 801 132 853 198 853 c 0
 242 853 273 829 273 794 c 0
 273 775 258 731 139 605 c 1
 167 612 194 617 220 617 c 0
 221 617 293 617 293 587 c 0
 293 571 264 542 249 542 c 0xb0
EndSplineSet
Validated: 1
EndChar

StartChar: uni00B3
Encoding: 179 179 115
Width: 284
Flags: W
HStem: 533 59<73.6083 163.682> 794 59<89.0625 206.333>
VStem: 175 59<604.88 681.5 747.967 824>
LayerCount: 2
Fore
SplineSet
48 777 m 0
 48 802 115 853 180 853 c 0
 212 853 235 839 235 809 c 0
 235 774 191 732 174 717 c 1
 222 707 234 691 234 672 c 0
 234 622 157 533 95 533 c 0
 58 533 49 568 49 574 c 0
 49 593 82 623 99 623 c 0
 111 623 104 613 117 600 c 0
 123 594 130 592 136 592 c 0
 155 592 175 613 175 628 c 0
 175 656 113 662 92 664 c 0
 87 664 84 668 84 673 c 0
 84 681 90 693 102 705 c 0
 114 717 177 755 177 769 c 0
 177 786 161 794 140 794 c 0
 97 794 73 766 58 766 c 0
 52 766 48 771 48 777 c 0
EndSplineSet
Validated: 1
EndChar

StartChar: acute
Encoding: 180 180 116
Width: 350
Flags: W
HStem: 644 84<71.4809 187.419>
VStem: 54 240
AnchorPoint: "top" 123 690 mark 0
LayerCount: 2
Fore
SplineSet
132 728 m 0
 157 728 179 733 192 740 c 1
 200 752 206 768 212 786 c 0
 221 813 265 853 286 853 c 0
 291 853 294 851 294 845 c 0
 294 821 220 644 68 644 c 0
 59 644 54 645 54 653 c 0
 54 674 100 728 132 728 c 0
EndSplineSet
Validated: 1
EndChar

StartChar: mu
Encoding: 181 181 117
Width: 737
Flags: W
HStem: -29 74<147.732 368.748 617.037 657.774> 443 20G<603 621.5>
VStem: 46 76<-834.828 -622.485 -250.798 411.181> 85 75<-788.759 -118.343> 540 75<46.4085 140>
LayerCount: 2
Fore
SplineSet
570 -30 m 0xe8
 554 -30 540 -24 540 102 c 0
 540 114 541 126 541 140 c 1
 416 -29 224 -29 161 -29 c 0
 152 -29 143 -29 134 -26 c 1
 160 -405 160 -404 160 -507 c 0
 160 -625 150 -725 121 -794 c 0
 111 -817 83 -842 63 -842 c 0
 55 -842 50 -838 50 -829 c 0
 50 -809 85 -779 85 -556 c 0xd8
 85 -348 46 60 46 163 c 0
 46 434 116 461 143 461 c 0
 151 461 156 457 156 448 c 0
 156 439 122 325 122 232 c 0
 122 174 122 45 209 45 c 0
 300 45 520 53 547 304 c 0
 553 363 554 404 554 404 c 0
 556 428 591 463 615 463 c 0
 628 463 628 453 628 446 c 0
 628 443 615 244 615 149 c 0
 615 108 615 75 624 45 c 1
 625 45 626 45 627 45 c 0
 638 70 668 92 685 92 c 0
 698 92 698 79 698 76 c 0
 698 39 645 -30 570 -30 c 0xe8
EndSplineSet
Validated: 1
EndChar

StartChar: paragraph
Encoding: 182 182 118
Width: 541
Flags: W
HStem: 419 78<181.198 287> 779 74<178.795 286 360 416>
VStem: 30 73<570.314 717.794> 287 74<7.20999 419 497 779> 418 74<205.76 776.139>
LayerCount: 2
Fore
SplineSet
345 853 m 1
 475 853 l 2
 491 853 492 853 492 646 c 0
 492 466 489 194 485 -55 c 0
 475 -655 469 -661 443 -687 c 0
 429 -701 415 -708 405 -708 c 0
 396 -708 390 -703 390 -694 c 0
 390 -689 393 -682 397 -674 c 1
 397 -637 l 1
 409 -436 418 262 418 606 c 0
 418 687 417 749 416 779 c 1
 360 779 l 1
 360 745 361 699 361 646 c 0
 361 466 359 194 355 -55 c 0
 345 -655 339 -661 313 -687 c 0
 299 -701 284 -708 274 -708 c 0
 265 -708 260 -703 260 -694 c 0
 260 -689 262 -682 266 -674 c 1
 266 -637 l 1
 276 -468 285 53 287 419 c 1
 117 426 30 515 30 611 c 0
 30 712 133 851 345 853 c 1
287 497 m 1
 287 536 287 573 287 606 c 0
 287 687 287 748 286 779 c 1
 121 772 103 692 103 658 c 0
 103 594 157 517 287 497 c 1
EndSplineSet
Validated: 1
EndChar

StartChar: periodcentered
Encoding: 183 183 119
Width: 213
Flags: W
HStem: 228 125<60.0915 150.908>
VStem: 46 119<240.433 340.769>
LayerCount: 2
Fore
SplineSet
125 353 m 4
 148 353 165 335 165 312 c 4
 165 277 123 228 86 228 c 4
 63 228 46 245 46 269 c 4
 46 305 88 353 125 353 c 4
EndSplineSet
Validated: 1
EndChar

StartChar: cedilla
Encoding: 184 184 120
Width: 455
Flags: W
HStem: -550 75<55.5459 252.573> -207 41<47.418 58>
VStem: 132 75<-78.4894 24.3108> 332 75<-423.03 -296.188>
AnchorPoint: "bottom" 170 0 mark 0
LayerCount: 2
Fore
SplineSet
195 35 m 4
 206 35 207 26 207 22 c 4
 207 -27 153 -109 137 -133 c 5
 305 -143 407 -233 407 -327 c 4
 407 -422 297 -550 59 -550 c 4
 51 -550 46 -545 46 -537 c 4
 46 -513 84 -475 108 -475 c 4
 234 -473 298 -440 317 -421 c 4
 326 -412 332 -397 332 -378 c 4
 332 -298 229 -208 58 -207 c 4
 50 -207 46 -203 46 -195 c 4
 46 -187 50 -177 58 -166 c 5
 58 -166 81 -134 103 -97 c 4
 120 -67 132 -40 132 -28 c 4
 132 -4 171 35 195 35 c 4
EndSplineSet
Validated: 1
EndChar

StartChar: uni00B9
Encoding: 185 185 121
Width: 272
Flags: W
HStem: 552 57<163 220.43> 748 59<56.7368 111.741> 834 20G<158 169.5>
VStem: 105 122<568.971 603.906> 105 58<609 775>
LayerCount: 2
Fore
SplineSet
149 552 m 0xf0
 100 552 62 533 57 533 c 0
 51 533 48 537 48 543 c 0
 48 544 51 579 105 597 c 1xf0
 113 775 l 1
 86 755 68 748 58 748 c 0
 51 748 48 751 48 757 c 0
 48 774 77 806 97 807 c 0
 104 807 149 854 167 854 c 0
 172 854 174 851 174 843 c 2
 163 609 l 1xe8
 212 615 225 604 225 604 c 2
 227 602 227 600 227 597 c 0
 227 580 195 547 177 547 c 0
 170 547 172 552 149 552 c 0xf0
EndSplineSet
Validated: 1
EndChar

StartChar: ordmasculine
Encoding: 186 186 122
Width: 432
Flags: W
HStem: 480 58<50.9178 396.413> 577 59<172.304 296.958> 794 59<183.611 303.801>
VStem: 95 59<655.347 763.858> 322 60<663.567 775.468>
LayerCount: 2
Fore
SplineSet
382 752 m 0
 382 672 303 577 206 577 c 0
 130 577 95 621 95 675 c 0
 95 757 177 853 272 853 c 0
 330 853 382 818 382 752 c 0
154 716 m 0
 154 639 234 636 245 636 c 0
 304 636 322 670 322 711 c 0
 322 766 281 794 232 794 c 0
 164 794 154 744 154 716 c 0
310 467 m 0
 258 467 183 480 114 480 c 0
 66 480 52 472 44 472 c 0
 39 472 36 476 36 481 c 0
 36 496 59 524 80 530 c 0
 101 536 128 538 157 538 c 0
 228 538 310 526 355 526 c 0
 366 526 375 526 381 528 c 0
 393 533 400 530 400 522 c 0
 400 521 396 467 310 467 c 0
EndSplineSet
Validated: 1
EndChar

StartChar: guillemotright
Encoding: 187 187 123
Width: 460
Flags: W
HStem: 50 363
VStem: 39 376
LayerCount: 2
Fore
SplineSet
62 102 m 0
 83 123 127 175 157 209 c 1
 94 253 62 289 62 316 c 0
 62 344 105 382 126 382 c 0
 145 382 119 350 241 271 c 0
 251 265 245 245 229 226 c 0
 228 225 140 120 93 73 c 0
 77 57 62 50 52 50 c 0
 44 50 39 55 39 63 c 0
 39 72 46 86 62 102 c 0
237 134 m 0
 258 155 302 207 332 241 c 1
 269 285 236 321 236 348 c 0
 236 376 280 413 301 413 c 0
 320 413 293 381 415 302 c 0
 425 296 419 277 403 258 c 0
 402 257 314 152 267 105 c 0
 251 89 236 82 226 82 c 0
 218 82 214 86 214 94 c 0
 214 103 221 118 237 134 c 0
EndSplineSet
Validated: 1
EndChar

StartChar: onequarter
Encoding: 188 188 124
Width: 513
Flags: W
HStem: 60 59<293 334 394.382 475.766> 272 57<151 208.43> 468 59<44.7368 99.741> 554 20G<146 157.5>
VStem: 40 59<-46.4812 18.4929> 93 122<288.971 323.906> 93 58<329 495> 334 59<-3.89196 56 119 180>
LayerCount: 2
Fore
SplineSet
478 98 m 0xf1
 478 80 445 47 427 47 c 0
 420 47 423 53 393 56 c 1
 393 38 l 2
 393 17 358 -14 342 -14 c 0
 337 -14 334 -11 334 -5 c 2
 334 60 l 1
 331 60 l 2
 318 60 258 59 236 52 c 0
 220 46 215 59 227 77 c 2
 340 258 l 2
 352 278 373 291 385 291 c 0
 390 291 394 289 394 283 c 2
 393 119 l 1
 417 118 478 117 478 98 c 0xf1
334 119 m 1
 334 180 l 1
 293 115 l 1
 305 117 322 118 334 119 c 1
40 -47 m 0xf9
 40 17 353 425 400 478 c 0
 413 493 426 499 434 499 c 0
 440 499 444 496 444 490 c 0
 444 484 440 474 429 462 c 0
 425 458 149 111 99 -6 c 1
 99 -27 64 -56 48 -56 c 0
 43 -56 40 -54 40 -47 c 0xf9
137 272 m 0
 88 272 50 253 45 253 c 0
 39 253 36 257 36 263 c 0
 36 264 39 299 93 317 c 1xf5
 101 495 l 1
 74 475 56 468 46 468 c 0
 39 468 36 471 36 477 c 0
 36 494 65 526 85 527 c 0
 92 527 137 574 155 574 c 0
 160 574 162 571 162 563 c 2
 151 329 l 1xf3
 200 335 213 324 213 324 c 2
 215 322 215 320 215 317 c 0xf5
 215 300 183 267 165 267 c 0
 158 267 160 272 137 272 c 0
EndSplineSet
Validated: 1
EndChar

StartChar: onehalf
Encoding: 189 189 125
Width: 534
Flags: W
HStem: -6 75<345 385.354 388.901 496.244> 10 59<314.546 475.647> 247 59<329.313 418.107> 272 57<151 208.43> 468 59<44.7368 99.741> 554 20G<146 157.5>
VStem: 40 59<-46.4812 18.4929> 93 122<288.971 323.906> 93 58<329 495> 420 58<183.098 263.5>
LayerCount: 2
Fore
SplineSet
454 -6 m 0xac40
 440 -6 428 10 387 10 c 0x4c40
 352 10 309 -1 267 -13 c 0
 245 -19 247 5 269 27 c 0
 271 29 420 179 420 207 c 0
 420 231 396 247 363 247 c 0
 353 247 343 245 335 242 c 1
 315 221 292 216 292 232 c 0
 292 254 338 306 404 306 c 0
 448 306 478 281 478 246 c 0
 478 227 464 183 345 57 c 1
 373 64 400 69 426 69 c 0
 427 69 498 68 498 39 c 0
 498 22 469 -6 454 -6 c 0xac40
137 272 m 0x1d40
 88 272 50 253 45 253 c 0
 39 253 36 257 36 263 c 0
 36 264 39 299 93 317 c 1x1d40
 101 495 l 1
 74 475 56 468 46 468 c 0
 39 468 36 471 36 477 c 0
 36 494 65 526 85 527 c 0
 92 527 137 574 155 574 c 0
 160 574 162 571 162 563 c 2
 151 329 l 1x1cc0
 200 335 213 324 213 324 c 2
 215 322 215 320 215 317 c 0
 215 300 183 267 165 267 c 0
 158 267 160 272 137 272 c 0x1d40
40 -47 m 0x8e40
 40 17 353 425 400 478 c 0
 413 493 426 499 434 499 c 0
 440 499 444 496 444 490 c 0
 444 484 440 474 429 462 c 0
 425 458 149 111 99 -6 c 1
 99 -27 64 -56 48 -56 c 0
 43 -56 40 -54 40 -47 c 0x8e40
EndSplineSet
Validated: 1
EndChar

StartChar: threequarters
Encoding: 190 190 126
Width: 509
Flags: W
HStem: 65 59<289 329 390.428 471.319> 253 59<66.6083 157.278> 514 59<82.9956 199.787>
VStem: 36 59<-42.2226 23.4929> 169 59<325.023 401.5 469.289 544> 329 60<1.81341 62 125 185>
LayerCount: 2
Fore
SplineSet
42 497 m 0
 42 522 108 573 173 573 c 0
 205 573 229 559 229 529 c 0
 229 494 184 452 167 437 c 1
 215 427 228 411 228 392 c 0
 228 342 150 253 88 253 c 0
 51 253 42 288 42 294 c 0
 42 313 75 343 92 343 c 0
 104 343 97 333 110 320 c 0
 116 314 122 312 129 312 c 0
 149 312 169 332 169 348 c 0
 169 376 106 382 85 384 c 0
 80 384 77 388 77 393 c 0
 77 401 83 413 95 425 c 0
 107 437 170 475 170 489 c 0
 170 506 154 514 133 514 c 0
 90 514 66 486 52 486 c 0
 46 486 42 491 42 497 c 0
474 104 m 0
 474 86 441 52 423 52 c 0
 416 52 420 58 389 62 c 1
 389 43 l 2
 389 22 353 -8 337 -8 c 0
 332 -8 329 -5 329 1 c 2
 329 65 l 1
 327 65 l 2
 314 65 254 64 232 57 c 0
 229 56 227 56 225 56 c 0
 220 56 216 58 216 64 c 0
 216 69 218 75 223 82 c 2
 336 263 l 2
 348 283 369 297 381 297 c 0
 386 297 389 294 389 288 c 2
 389 125 l 1
 413 124 474 123 474 104 c 0
329 124 m 1
 329 185 l 1
 289 121 l 1
 301 123 317 123 329 124 c 1
36 -41 m 0
 36 23 348 431 395 484 c 0
 408 498 420 505 429 505 c 0
 436 505 440 500 440 494 c 0
 440 487 435 478 425 467 c 0
 421 463 145 116 95 -1 c 1
 95 -22 61 -51 45 -51 c 0
 40 -51 36 -48 36 -41 c 0
EndSplineSet
Validated: 1
EndChar

StartChar: questiondown
Encoding: 191 191 127
Width: 472
Flags: W
HStem: -46 75<157.5 350.368> 324 71<167.457 264> 557 90<190.943 219.439> 725 125<228.092 318.908>
VStem: 33 75<76.4209 263.781> 214 119<737.433 837.567> 267 75<388.385 568.185> 365 75<53.6922 128.454>
LayerCount: 2
Fore
SplineSet
220 571 m 1xfb
 208 561 198 557 190 557 c 0
 182 557 176 563 176 571 c 0
 176 594 219 647 268 647 c 0
 293 647 314 633 325 622 c 0
 337 610 342 604 342 540 c 0
 342 475 335 387 335 383 c 0
 333 358 296 323 273 323 c 2
 271 323 l 1
 271 323 267 324 260 324 c 0
 214 324 164 309 142 287 c 0
 110 255 108 183 108 169 c 0
 108 71 193 29 270 29 c 0
 320 29 353 47 359 53 c 1
 364 68 365 68 365 76 c 0
 365 100 403 138 427 138 c 0
 435 138 440 134 440 125 c 0
 440 44 345 -46 219 -46 c 0
 123 -46 33 9 33 120 c 0
 33 292 156 378 264 395 c 1
 265 411 267 456 267 494 c 0
 267 530 267 568 220 571 c 1xfb
333 809 m 0xfd
 333 774 291 725 254 725 c 0
 232 725 214 742 214 766 c 0
 214 801 256 850 293 850 c 0
 315 850 333 833 333 809 c 0xfd
EndSplineSet
Validated: 1
EndChar

StartChar: AE
Encoding: 198 198 134
Width: 924
Flags: W
HStem: -35 55<622.262 798.117> -17 57<489.315 774.761> 386 57<299.767 423 498 768.576> 756 57<702.648 887.333> 772 57<538.249 867.037> 779 74<272.32 411.995>
VStem: 413 74<21 384> 443 74<444.691 745.745>
LayerCount: 2
Fore
SplineSet
500 386 m 2x29
 495 386 l 1
 492 303 487 139 487 50 c 2
 487 21 l 1
 529 37 581 40 618 40 c 0x6a
 709 40 795 20 797 20 c 0
 802 19 804 15 804 10 c 0
 804 -6 783 -35 754 -35 c 0xa2
 726 -35 684 -17 582 -17 c 0
 437 -17 466 -58 427 -58 c 0
 413 -58 413 -55 413 6 c 0
 413 168 423 380 423 384 c 1
 321 377 234 356 152 313 c 1
 132 82 103 -32 43 -32 c 0
 34 -32 29 -28 29 -19 c 0
 29 -13 31 -6 36 3 c 1
 62 86 81 271 83 347 c 0
 95 772 307 853 374 853 c 0x66
 442 853 478 823 497 782 c 1
 549 810 614 829 699 829 c 0x2a
 777 829 844 813 878 813 c 0
 887 813 894 812 894 802 c 0
 894 793 878 756 842 756 c 0x32
 804 756 740 772 663 772 c 0
 614 772 560 765 509 743 c 1
 514 722 517 696 517 662 c 0
 517 589 503 507 498 442 c 1
 510 442 523 443 536 443 c 0
 617 443 706 435 806 424 c 0
 812 423 815 419 815 414 c 0
 815 398 789 368 769 368 c 0
 762 368 624 386 500 386 c 2x29
155 359 m 1
 241 404 330 429 428 438 c 1
 443 575 443 575 443 616 c 0
 443 708 419 779 327 779 c 0x25
 290 779 266 754 259 747 c 0
 173 661 163 503 155 359 c 1
EndSplineSet
Validated: 1
EndChar

StartChar: Ccedilla
Encoding: 199 199 135
Width: 735
Flags: W
HStem: -551 75<208.546 405.573> -208 41<200.418 211> 779 74<406 692.321>
VStem: 36 74<173.508 531.009> 485 75<-424.03 -296.966>
LayerCount: 2
Fore
SplineSet
36 309 m 0
 36 814 473 849 687 853 c 0
 700 853 701 842 701 839 c 0
 701 817 667 779 641 779 c 0
 498 777 303 756 204 657 c 0
 129 582 110 460 110 355 c 0
 110 195 177 38 367 38 c 0
 522 38 652 133 690 133 c 0
 697 133 701 129 701 121 c 0
 701 105 682 78 659 66 c 0
 535 1 431 -29 346 -34 c 1
 329 -75 301 -118 290 -134 c 1
 458 -144 560 -234 560 -328 c 0
 560 -423 450 -551 212 -551 c 0
 203 -551 199 -546 199 -538 c 0
 199 -514 237 -476 261 -476 c 0
 387 -474 451 -441 470 -422 c 0
 479 -413 485 -397 485 -379 c 0
 485 -298 383 -209 211 -208 c 0
 203 -208 199 -203 199 -196 c 0
 199 -188 203 -178 211 -167 c 2
 211 -167 234 -135 256 -98 c 0
 271 -72 282 -47 285 -33 c 1
 57 -11 36 222 36 309 c 0
EndSplineSet
Validated: 1
EndChar

StartChar: Eth
Encoding: 208 208 144
Width: 737
Flags: W
HStem: -37 74<244.841 443.966> 392 71<141 326.84> 779 74<205.552 449.577>
VStem: 66 74<138 383 463 655.317> 629 74<245.859 576.89>
LayerCount: 2
Fore
SplineSet
195 392 m 0
 172 392 149 391 140 390 c 1
 140 352 l 2
 140 268 141 191 142 138 c 1
 158 151 175 155 182 148 c 0
 185 145 192 121 221 92 c 0
 269 44 330 37 358 37 c 0
 440 37 629 106 629 396 c 0
 629 643 470 779 311 779 c 0
 257 779 203 763 155 730 c 1
 146 658 142 561 141 463 c 1
 173 467 213 469 250 469 c 0
 360 469 361 445 361 436 c 0
 361 409 317 370 295 370 c 0
 278 370 306 392 195 392 c 0
33 657 m 0
 33 669 45 691 88 733 c 1
 106 834 146 845 163 845 c 0
 171 845 177 841 177 832 c 0
 177 822 172 820 166 795 c 1
 229 834 295 853 359 853 c 0
 542 853 703 700 703 443 c 0
 703 99 438 -37 311 -37 c 0
 213 -37 158 16 136 45 c 1
 117 -3 73 -39 47 -39 c 0
 35 -39 33 -31 33 -26 c 0
 33 -12 47 10 68 25 c 1
 68 35 l 2
 68 38 66 229 66 305 c 2
 66 383 l 1
 32 378 32 377 32 390 c 0
 32 404 48 427 67 442 c 1
 69 529 73 601 78 658 c 1
 56 640 33 639 33 657 c 0
EndSplineSet
Validated: 1
EndChar

StartChar: multiply
Encoding: 215 215 151
Width: 431
Flags: W
VStem: 42 350<350 398>
LayerCount: 2
Fore
SplineSet
361 128 m 0
 361 104 319 65 297 65 c 0
 293 65 290 66 288 68 c 0
 287 69 273 92 198 179 c 1
 118 90 104 70 96 62 c 0
 70 36 42 32 42 51 c 0
 42 67 69 102 169 212 c 1
 56 342 42 337 42 350 c 0
 42 373 82 414 105 414 c 0
 121 414 201 323 235 284 c 1
 331 387 358 412 379 412 c 0
 387 412 392 406 392 398 c 0
 392 388 385 373 370 358 c 0
 361 349 362 353 338 329 c 0
 319 310 293 282 264 251 c 1
 360 136 361 137 361 128 c 0
EndSplineSet
Validated: 1
EndChar

StartChar: Oslash
Encoding: 216 216 152
Width: 740
VWidth: 1748
Flags: W
HStem: -22 71<287.026 497.409> 769 75<295.422 470.882> 833 20G<680.5 697>
VStem: 38 75<-20.0939 71.9075 224.323 530.594> 630 74<219.067 560.37>
LayerCount: 2
Fore
SplineSet
416 844 m 0xd8
 489 844 547 800 587 753 c 1
 659 840 669 853 692 853 c 0xb8
 702 853 707 844 707 841 c 0
 707 830 688 807 614 717 c 1
 671 635 704 528 704 448 c 0
 704 129 534 -22 364 -22 c 0
 282 -22 200 13 136 81 c 1
 114 43 113 33 113 32 c 0
 113 4 69 -32 48 -32 c 0
 41 -32 37 -29 37 -20 c 0
 37 0 50 36 105 121 c 1
 58 186 38 264 38 343 c 0
 38 606 251 844 416 844 c 0xd8
630 401 m 0
 630 469 601 564 553 641 c 1
 429 487 279 296 189 164 c 1
 243 98 330 49 412 49 c 0
 525 49 630 141 630 401 c 0
161 204 m 1
 266 352 417 543 526 678 c 1
 476 742 422 769 370 769 c 0xd8
 233 769 113 578 113 391 c 0
 113 325 127 260 161 204 c 1
EndSplineSet
Validated: 1
EndChar

StartChar: Thorn
Encoding: 222 222 158
Width: 607
Flags: W
HStem: -31 21G<36 59> 122 74<138 325.566> 609 75<146.318 388.956>
VStem: 64 74<5.55285 122 196.222 604.293> 500 75<342.415 518.368>
LayerCount: 2
Fore
SplineSet
139 122 m 2
 138 122 l 1
 138 96 139 79 138 75 c 0
 131 26 76 -31 42 -31 c 0
 30 -31 29 -23 29 -18 c 0
 29 -4 43 18 64 33 c 1
 64 43 l 2
 64 46 61 236 61 312 c 0
 61 762 97 808 120 831 c 0
 135 846 149 853 159 853 c 0
 167 853 172 849 172 840 c 0
 172 824 156 821 145 677 c 1
 182 681 216 684 248 684 c 0
 478 684 575 581 575 467 c 0
 575 317 404 122 139 122 c 2
500 419 m 0
 500 515 415 609 201 609 c 0
 182 609 162 609 141 607 c 1
 137 528 136 440 136 359 c 0
 136 300 136 245 137 199 c 1
 153 198 169 196 184 196 c 0
 369 196 500 296 500 419 c 0
EndSplineSet
Validated: 1
EndChar

StartChar: germandbls
Encoding: 223 223 159
Width: 719
Flags: W
HStem: -33 74<231.281 319.625> 779 74<437.341 590.826>
VStem: 29 74<-107.614 115.085> 465 74<203.651 376.707> 613 74<594.258 755.608>
LayerCount: 2
Fore
SplineSet
238 -33 m 0
 222 -33 222 -23 222 -20 c 0
 222 1 255 41 282 41 c 0
 317 41 465 169 465 283 c 0
 465 386 349 438 347 439 c 0
 342 441 340 446 340 451 c 0
 340 472 372 510 399 512 c 0
 401 512 482 519 548 556 c 0
 584 576 613 602 613 667 c 0
 613 768 538 779 508 779 c 0
 456 779 410 747 375 712 c 0
 199 536 128 140 103 -59 c 0
 100 -83 66 -116 43 -116 c 0
 35 -116 29 -112 29 -103 c 0
 29 -94 84 484 343 743 c 0
 442 842 523 853 555 853 c 0
 674 853 687 754 687 713 c 0
 687 548 511 478 475 465 c 1
 517 426 539 381 539 330 c 0
 539 168 320 -33 238 -33 c 0
EndSplineSet
Validated: 1
EndChar

StartChar: ae
Encoding: 230 230 166
Width: 987
Flags: W
HStem: -54 74<161.164 340.049 584.919 808.649> 145 74<527.043 760.502> 365 74<139.776 291.707> 384 89<659.366 878.95>
VStem: 34 75<79.312 327.432> 879 74<321.59 419.5>
LayerCount: 2
Fore
SplineSet
930 117 m 0xdc
 939 117 943 111 943 102 c 0
 943 91 935 75 917 59 c 4
 833 -14 757 -54 655 -54 c 4
 527 -54 476 20 456 74 c 5
 361 -37 248 -54 190 -54 c 4
 58 -54 34 109 34 185 c 4
 34 334 132 439 260 439 c 4xec
 314 439 348 409 383 374 c 4
 450 307 450 307 462 297 c 5
 466 335 470 371 471 391 c 5
 462 385 451 378 449 376 c 4
 436 364 421 357 411 357 c 0
 399 357 398 367 398 371 c 0
 398 405 494 473 529 473 c 4
 546 473 546 459 546 449 c 4
 546 435 544 410 538 359 c 5
 621 431 731 459 821 459 c 4
 862 459 901 453 936 442 c 4
 948 438 953 427 953 412 c 4
 953 337 813 145 619 145 c 4
 577 145 542 154 520 161 c 5
 548 35 654 20 703 20 c 4
 850 20 892 117 930 117 c 0xdc
773 384 m 4xdc
 721 384 539 364 526 256 c 5
 559 239 611 219 669 219 c 4
 808 219 879 335 879 365 c 4xec
 879 374 821 384 773 384 c 4xdc
238 20 m 4
 360 20 422 90 441 139 c 5
 440 146 440 154 440 161 c 0
 440 174 441 185 443 197 c 5
 324 267 296 365 212 365 c 4
 163 365 141 347 138 344 c 4
 109 315 109 235 109 234 c 4
 109 181 126 20 238 20 c 4
EndSplineSet
Validated: 1
EndChar

StartChar: ccedilla
Encoding: 231 231 167
Width: 589
Flags: W
HStem: -551 75<159.546 356.573> -208 41<151.418 162> 388 75<222.885 474>
VStem: 32 74<131.672 311.717> 436 75<-424.03 -296.966>
LayerCount: 2
Fore
SplineSet
539 137 m 0
 548 137 553 131 553 123 c 0
 553 112 545 96 527 80 c 0
 468 27 404 -22 299 -29 c 1
 282 -72 252 -117 241 -134 c 1
 409 -144 511 -234 511 -328 c 0
 511 -423 401 -551 163 -551 c 0
 154 -551 150 -546 150 -538 c 0
 150 -514 188 -476 212 -476 c 0
 338 -474 402 -441 421 -422 c 0
 430 -413 436 -397 436 -379 c 0
 436 -298 334 -209 162 -208 c 0
 154 -208 150 -203 150 -196 c 0
 150 -188 154 -178 162 -167 c 2
 162 -167 185 -135 207 -98 c 0
 224 -69 236 -41 236 -29 c 0
 236 -28 236 -28 236 -27 c 0
 120 -12 32 76 32 187 c 0
 32 245 50 302 102 354 c 0
 193 445 336 463 541 463 c 0
 549 463 553 457 553 448 c 0
 553 415 494 317 453 317 c 0
 434 317 436 340 456 363 c 0
 465 374 470 382 474 388 c 1
 135 386 106 320 106 238 c 0
 106 126 208 44 322 44 c 0
 473 44 497 137 539 137 c 0
EndSplineSet
Validated: 1
EndChar

StartChar: eth
Encoding: 240 240 176
Width: 582
Flags: W
HStem: -30 73<122.02 289.233> 779 73<415.877 542.502>
VStem: 37 74<56.1207 204.248 397.051 509.155> 367 73<136.311 422.277>
LayerCount: 2
Fore
SplineSet
113 448 m 0
 113 424 75 389 52 389 c 0
 41 389 33 396 33 416 c 0
 33 474 128 599 242 699 c 1
 200 770 181 781 181 793 c 0
 181 816 220 853 242 853 c 0
 258 853 306 772 315 756 c 1
 405 820 490 852 530 852 c 0
 544 852 552 848 552 839 c 0
 552 818 518 780 492 779 c 0
 475 779 421 770 338 715 c 1
 430 534 440 378 440 318 c 0
 440 89 306 -30 154 -30 c 0
 72 -30 37 14 37 77 c 0
 37 196 161 383 337 475 c 1
 319 538 295 600 265 658 c 1
 165 572 107 484 107 463 c 0
 107 458 113 458 113 448 c 0
367 272 m 0
 367 332 357 388 349 424 c 1
 207 360 111 214 111 124 c 0
 111 77 138 43 201 43 c 0
 263 43 297 64 312 79 c 0
 363 130 367 242 367 272 c 0
EndSplineSet
Validated: 1
EndChar

StartChar: divide
Encoding: 247 247 183
Width: 407
Flags: W
HStem: 28 126<147.594 238.614> 182 77<61.2295 300.235> 288 125<161.386 252.614>
VStem: 133 120<41.2106 140.789 293.138 388.679>
LayerCount: 2
Fore
SplineSet
147 329 m 0
 147 364 190 413 227 413 c 0
 248 413 267 397 267 372 c 0
 267 337 224 288 187 288 c 0
 165 288 147 305 147 329 c 0
173 28 m 0
 151 28 133 44 133 69 c 0
 133 104 176 154 213 154 c 0
 234 154 253 138 253 113 c 0
 253 78 210 28 173 28 c 0
201 182 m 0
 116 182 71 170 51 170 c 0
 42 170 38 172 38 180 c 0
 38 200 71 238 98 245 c 0
 123 251 194 259 256 259 c 0
 366 259 367 235 367 226 c 0
 367 199 323 160 301 160 c 0
 284 160 312 182 201 182 c 0
EndSplineSet
Validated: 1
EndChar

StartChar: oslash
Encoding: 248 248 184
Width: 600
Flags: W
HStem: -32 74<190.861 414.601> 387 75<166.857 415.472>
VStem: 35 75<123.942 332.37> 480 74<102.925 338.311>
LayerCount: 2
Fore
SplineSet
34 -11 m 0
 34 7 63 36 81 54 c 1
 36 114 35 173 35 187 c 0
 35 226 39 311 111 383 c 0
 179 451 263 462 325 462 c 0
 393 462 450 455 491 430 c 1
 516 450 534 463 546 463 c 0
 552 463 558 461 558 452 c 0
 558 438 543 416 524 401 c 1
 554 362 554 312 554 265 c 0
 554 13 370 -32 238 -32 c 0
 193 -32 146 -11 109 23 c 1
 83 -3 62 -24 47 -24 c 0
 41 -24 34 -19 34 -11 c 0
452 340 m 1
 377 274 260 167 178 89 c 1
 210 60 250 42 285 42 c 0
 308 42 408 44 447 83 c 0
 469 105 480 151 480 221 c 0
 480 263 480 307 452 340 c 1
417 366 m 1
 384 382 337 387 277 387 c 0
 137 387 110 331 110 234 c 0
 110 177 138 136 150 120 c 1
 243 208 356 311 417 366 c 1
EndSplineSet
Validated: 1
EndChar

StartChar: thorn
Encoding: 254 254 190
Width: 687
Flags: W
HStem: -838 65<110.692 164.989> -29 74<152 382.25> 392 75<189 400.377> 788 65<30.0109 98.4915>
VStem: 29 65<-769.21 -199.875> 126 65<467 765.544> 576 74<152.133 278.343>
LayerCount: 2
Fore
SplineSet
132 -773 m 0
 150 -773 165 -787 165 -805 c 0
 165 -823 150 -838 132 -838 c 0
 34 -838 29 -682 29 -595 c 0
 29 -296 126 233 126 553 c 0
 126 634 119 788 63 788 c 0
 45 788 30 802 30 820 c 0
 30 838 45 853 63 853 c 0
 183 853 191 665 191 553 c 0
 191 526 190 497 189 467 c 1
 494 467 650 363 650 251 c 0
 650 190 606 138 584 116 c 0
 478 10 299 -23 143 -29 c 1
 119 -241 94 -448 94 -595 c 0
 94 -702 109 -773 132 -773 c 0
185 392 m 1
 178 284 166 165 152 45 c 1
 366 47 576 102 576 201 c 0
 576 239 549 270 536 283 c 0
 480 339 362 385 185 392 c 1
EndSplineSet
Validated: 1
EndChar

StartChar: dotlessi
Encoding: 256 305 192
Width: 309
Flags: W
HStem: -31 76<73 211.817>
VStem: 36 76<45.7508 329.683>
AnchorPoint: "bottom" 111 1 basechar 0
AnchorPoint: "top" 202 642 basechar 0
LayerCount: 2
Fore
SplineSet
277 82 m 0
 277 49 188 -31 102 -31 c 0
 44 -31 36 56 36 104 c 0
 36 179 54 283 98 410 c 0
 106 435 139 465 160 465 c 0
 167 465 172 461 172 453 c 0
 172 441 112 291 112 158 c 0
 112 107 123 45 155 45 c 0
 214 45 242 96 264 96 c 0
 269 96 277 92 277 82 c 0
EndSplineSet
Validated: 1
EndChar
